<svg xmlns="http://www.w3.org/2000/svg" width="450" height="220" viewBox="0 0 450 220"><style>.st0{fill:#98EAE0;} .st1{fill:#B0F7ED;} .st2{fill:#5FD4C8;} .st3{fill:#D7E13D;} .st4{fill:#01954A;} .st5{fill:#98C64E;} .st6{fill:#A4DF57;} .st7{fill:#156B7E;} .st8{fill:#186EA8;} .st9{fill:#36A3D9;} .st10{fill:#D34946;} .st11{fill:#EA6263;} .st12{fill:#FFFFFF;} .st13{fill:#FF2D7F;} .st14{fill:#F9EF49;} .st15{fill:#EDB0E8;} .st16{fill:#23A0F3;} .st17{fill:#125C68;} .st18{fill:#D8D8D8;} .st19{fill:#754C2B;} .st20{fill:#939598;} .st21{fill:#9A779A;} .st22{fill:#B78AB5;} .st23{fill:#7B607B;} .st24{fill:#4AB7DC;} .st25{fill:#E6E7E8;} .st26{fill:#FDE0FE;} .st27{fill:#CC6794;} .st28{fill:#CCAAB6;} .st29{fill:#F7952A;} .st30{fill:#CE7A2B;} .st31{fill:#FF9A1E;} .st32{fill:#115C68;} .st33{fill:#197D8D;} .st34{fill:#60A5C0;} .st35{fill:#FDA6DB;} .st36{fill:#333333;} .st37{fill:#4D4D4D;} .st38{fill:#231F20;} .st39{fill:#BA2A63;} .st40{fill:#FC3982;} .st41{fill:#325380;}</style><path class="st0" d="M450.05 219.95v-220H.05v220h450z" id="BG_0_Layer0_0_FILL_1_"/><path class="st1" d="M142.6 36l6.5-3.2-6.5-3.2-6.4 3.2 6.4 3.2z" id="CLOUDSSYMBOL_0_Layer0_0_MEMBER_0_FILL_1_"/><path class="st2" d="M142.6 36l-6.4-3.2v6.4l6.4 3.2V36z" id="CLOUDSSYMBOL_0_Layer0_0_MEMBER_1_FILL_1_"/><path class="st1" d="M149.1 32.8l-6.5 3.2v6.5l6.5-3.2v-6.5z" id="CLOUDSSYMBOL_0_Layer0_0_MEMBER_2_FILL_1_"/><path class="st1" d="M308.8 75.3l6.5-3.2-6.5-3.2-6.4 3.2 6.4 3.2z" id="CLOUDSSYMBOL_0_Layer0_1_MEMBER_0_FILL_1_"/><path class="st2" d="M308.8 75.3l-6.4-3.2v6.4l6.4 3.2v-6.4z" id="CLOUDSSYMBOL_0_Layer0_1_MEMBER_1_FILL_1_"/><path class="st1" d="M315.2 72.1l-6.5 3.2v6.5l6.5-3.2v-6.5z" id="CLOUDSSYMBOL_0_Layer0_1_MEMBER_2_FILL_1_"/><path class="st1" d="M94 194.9l3.6-1.8-3.6-1.8-3.6 1.8 3.6 1.8z" id="CLOUDSSYMBOL_0_Layer0_2_MEMBER_0_FILL_1_"/><path class="st2" d="M94 194.8l-3.6-1.8v3.6l3.6 1.8v-3.6z" id="CLOUDSSYMBOL_0_Layer0_2_MEMBER_1_FILL_1_"/><path class="st1" d="M97.6 193.1l-3.6 1.8v3.7l3.6-1.8v-3.7z" id="CLOUDSSYMBOL_0_Layer0_2_MEMBER_2_FILL_1_"/><path class="st1" d="M79.4 201.1l-3.6 1.8 3.6 1.8 3.7-1.8-3.7-1.8z" id="CLOUDSSYMBOL_0_Layer0_3_MEMBER_0_FILL_1_"/><path class="st2" d="M79.4 204.8l-3.6-1.8v3.6l3.6 1.8v-3.6z" id="CLOUDSSYMBOL_0_Layer0_3_MEMBER_1_FILL_1_"/><path class="st1" d="M83 206.6V203l-3.7 1.8v3.6l3.7-1.8z" id="CLOUDSSYMBOL_0_Layer0_3_MEMBER_2_FILL_1_"/><path class="st1" d="M63.1 34.4l4.5-2.2-4.5-2.2-4.5 2.2 4.5 2.2z" id="CLOUDSSYMBOL_0_Layer0_4_MEMBER_0_FILL_1_"/><path class="st2" d="M63.1 34.3l-4.5-2.2v4.5l4.5 2.2v-4.5z" id="CLOUDSSYMBOL_0_Layer0_4_MEMBER_1_FILL_1_"/><path class="st1" d="M67.6 32.1l-4.5 2.2v4.5l4.5-2.2v-4.5z" id="CLOUDSSYMBOL_0_Layer0_4_MEMBER_2_FILL_1_"/><path class="st1" d="M34.8 34l-6.5 3.2 6.5 3.2 6.4-3.2-6.4-3.2z" id="CLOUDSSYMBOL_0_Layer0_5_MEMBER_0_FILL_1_"/><path class="st2" d="M34.8 40.5l-6.5-3.2v6.5l6.5 3.2v-6.5z" id="CLOUDSSYMBOL_0_Layer0_5_MEMBER_1_FILL_1_"/><path class="st1" d="M41.3 43.7v-6.5l-6.4 3.2V47l6.4-3.3z" id="CLOUDSSYMBOL_0_Layer0_5_MEMBER_2_FILL_1_"/><path class="st1" d="M49.1 33.1l6.5-3.3-6.5-3.2-6.5 3.2 6.5 3.3z" id="CLOUDSSYMBOL_0_Layer0_6_MEMBER_0_FILL_1_"/><path class="st2" d="M49.1 33l-6.5-3.2v6.4l6.5 3.2V33z" id="CLOUDSSYMBOL_0_Layer0_6_MEMBER_1_FILL_1_"/><path class="st1" d="M55.6 29.8L49.1 33v6.5l6.5-3.2v-6.5z" id="CLOUDSSYMBOL_0_Layer0_6_MEMBER_2_FILL_1_"/><path class="st1" d="M54.2 23.8l6.5-3.2-6.5-3.2-6.5 3.2 6.5 3.2z" id="CLOUDSSYMBOL_0_Layer0_7_MEMBER_0_FILL_1_"/><path class="st2" d="M54.2 23.7l-6.5-3.2V27l6.5 3.2v-6.5z" id="CLOUDSSYMBOL_0_Layer0_7_MEMBER_1_FILL_1_"/><path class="st1" d="M60.7 20.5l-6.5 3.2v6.5l6.5-3.2v-6.5z" id="CLOUDSSYMBOL_0_Layer0_7_MEMBER_2_FILL_1_"/><path class="st1" d="M21.8 47.7l4.5-2.2-4.5-2.2-4.5 2.2 4.5 2.2z" id="CLOUDSSYMBOL_0_Layer0_8_MEMBER_0_FILL_1_"/><path class="st2" d="M21.8 47.7l-4.5-2.2V50l4.5 2.2v-4.5z" id="CLOUDSSYMBOL_0_Layer0_8_MEMBER_1_FILL_1_"/><path class="st1" d="M26.3 45.5l-4.5 2.2v4.5l4.5-2.2v-4.5z" id="CLOUDSSYMBOL_0_Layer0_8_MEMBER_2_FILL_1_"/><path class="st1" d="M21.8 17.3l4.5-2.2-4.5-2.2-4.5 2.1 4.5 2.3z" id="CLOUDSSYMBOL_0_Layer0_9_MEMBER_0_FILL_1_"/><path class="st2" d="M21.8 17.3L17.3 15v4.5l4.5 2.2v-4.4z" id="CLOUDSSYMBOL_0_Layer0_9_MEMBER_1_FILL_1_"/><path class="st1" d="M26.3 15l-4.5 2.2v4.4l4.5-2.2V15z" id="CLOUDSSYMBOL_0_Layer0_9_MEMBER_2_FILL_1_"/><path class="st1" d="M78.4 181.7l-6.8 3.4 6.8 3.4 6.8-3.4-6.8-3.4z" id="CLOUDSSYMBOL_0_Layer0_10_MEMBER_0_FILL_1_"/><path class="st2" d="M78.4 188.4l-6.8-3.4v6.8l6.8 3.4v-6.8z" id="CLOUDSSYMBOL_0_Layer0_10_MEMBER_1_FILL_1_"/><path class="st1" d="M78.4 188.4v6.8l6.8-3.4V185l-6.8 3.4z" id="CLOUDSSYMBOL_0_Layer0_10_MEMBER_2_FILL_1_"/><path class="st1" d="M428.1 34.4l8.4-4.2-8.4-4.2-8.4 4.2 8.4 4.2z" id="CLOUDSSYMBOL_0_Layer0_11_MEMBER_0_FILL_1_"/><path class="st2" d="M428.1 34.4l-8.4-4.2v8.4l8.4 4.2v-8.4z" id="CLOUDSSYMBOL_0_Layer0_11_MEMBER_1_FILL_1_"/><path class="st1" d="M436.5 30.2l-8.4 4.2v8.4l8.4-4.2v-8.4z" id="CLOUDSSYMBOL_0_Layer0_11_MEMBER_2_FILL_1_"/><path class="st1" d="M429.7 26.1l4.5-2.2-4.5-2.2-4.5 2.2 4.5 2.2z" id="CLOUDSSYMBOL_0_Layer0_12_MEMBER_0_FILL_1_"/><path class="st2" d="M429.7 26.1l-4.5-2.2v4.5l4.5 2.2v-4.5z" id="CLOUDSSYMBOL_0_Layer0_12_MEMBER_1_FILL_1_"/><path class="st1" d="M434.2 23.8l-4.5 2.2v4.5l4.5-2.2v-4.5z" id="CLOUDSSYMBOL_0_Layer0_12_MEMBER_2_FILL_1_"/><path class="st1" d="M42.6 201.4l7.8-3.8-4.4-2.2-7.8 3.8 4.4 2.2z" id="CLOUDSSYMBOL_0_Layer0_13_MEMBER_0_FILL_1_"/><path class="st2" d="M42.6 205.7v-4.4l-4.4-2.1v4.4l4.4 2.1z" id="CLOUDSSYMBOL_0_Layer0_13_MEMBER_1_FILL_1_"/><path class="st1" d="M50.4 197.6l-7.8 3.8v4.4l7.8-3.9v-4.3z" id="CLOUDSSYMBOL_0_Layer0_13_MEMBER_2_FILL_1_"/><path class="st1" d="M114 58.3l4.3 2.1 7.8-3.8-4.3-2.2-7.8 3.9z" id="CLOUDSSYMBOL_0_Layer0_14_MEMBER_0_FILL_1_"/><path class="st2" d="M118.3 60.5l-4.3-2.1v4.3l4.3 2.1v-4.3z" id="CLOUDSSYMBOL_0_Layer0_14_MEMBER_1_FILL_1_"/><path class="st1" d="M118.3 60.5v4.3l7.8-3.8v-4.3l-7.8 3.8z" id="CLOUDSSYMBOL_0_Layer0_14_MEMBER_2_FILL_1_"/><path class="st1" d="M390 202.6l4-2-4-2-3.9 2 3.9 2z" id="CLOUDSSYMBOL_0_Layer0_15_MEMBER_0_FILL_1_"/><path class="st2" d="M390 202.6l-3.9-2v3.9l3.9 1.9v-3.8z" id="CLOUDSSYMBOL_0_Layer0_15_MEMBER_1_FILL_1_"/><path class="st1" d="M394 200.6l-4 2v3.9l4-1.9v-4z" id="CLOUDSSYMBOL_0_Layer0_15_MEMBER_2_FILL_1_"/><path class="st1" d="M372.7 55.8l10.8-5.4-10.8-5.4-10.8 5.4 10.8 5.4z" id="CLOUDSSYMBOL_0_Layer0_16_MEMBER_0_FILL_1_"/><path class="st2" d="M361.9 50.3v10.8l10.8 5.4V55.7l-10.8-5.4z" id="CLOUDSSYMBOL_0_Layer0_16_MEMBER_1_FILL_1_"/><path class="st1" d="M383.4 50.3l-10.8 5.4v10.9l10.8-5.4V50.3z" id="CLOUDSSYMBOL_0_Layer0_16_MEMBER_2_FILL_1_"/><path class="st1" d="M332.5 30.1l2.5-1.2-2.5-1.2-2.5 1.2 2.5 1.2z" id="CLOUDSSYMBOL_0_Layer0_17_MEMBER_0_FILL_1_"/><path class="st2" d="M332.5 30.1l-2.5-1.2v2.5l2.5 1.3v-2.6z" id="CLOUDSSYMBOL_0_Layer0_17_MEMBER_1_FILL_1_"/><path class="st1" d="M335 28.9l-2.5 1.2v2.5l2.5-1.3v-2.4z" id="CLOUDSSYMBOL_0_Layer0_17_MEMBER_2_FILL_1_"/><path class="st1" d="M343.1 33.9l4.2-2.2-4.2-2.1-4.2 2.1 4.2 2.2z" id="CLOUDSSYMBOL_0_Layer0_18_MEMBER_0_FILL_1_"/><path class="st2" d="M343.1 33.9l-4.2-2.1V36l4.2 2.1v-4.2z" id="CLOUDSSYMBOL_0_Layer0_18_MEMBER_1_FILL_1_"/><path class="st1" d="M347.3 31.8l-4.2 2.1v4.2l4.2-2.1v-4.2z" id="CLOUDSSYMBOL_0_Layer0_18_MEMBER_2_FILL_1_"/><path class="st1" d="M356.5 38.4l7-3.5-7-3.5-7 3.5 7 3.5z" id="CLOUDSSYMBOL_0_Layer0_19_MEMBER_0_FILL_1_"/><path class="st2" d="M356.5 38.4l-7-3.5v7l7 3.5v-7z" id="CLOUDSSYMBOL_0_Layer0_19_MEMBER_1_FILL_1_"/><path class="st1" d="M363.5 34.9l-7 3.5v7l7-3.5v-7z" id="CLOUDSSYMBOL_0_Layer0_19_MEMBER_2_FILL_1_"/><path class="st1" d="M361 57l-7 3.5 7 3.5 7-3.5-7-3.5z" id="CLOUDSSYMBOL_0_Layer0_20_MEMBER_0_FILL_1_"/><path class="st2" d="M361 63.9l-7-3.5v7l7 3.5v-7z" id="CLOUDSSYMBOL_0_Layer0_20_MEMBER_1_FILL_1_"/><path class="st1" d="M361 63.9v7l7-3.5v-7l-7 3.5z" id="CLOUDSSYMBOL_0_Layer0_20_MEMBER_2_FILL_1_"/><path class="st1" d="M425.2 203.7l7-3.5-7-3.5-7 3.5 7 3.5z" id="CLOUDSSYMBOL_0_Layer0_21_MEMBER_0_FILL_1_"/><path class="st2" d="M425.2 203.7l-7-3.5v7l7 3.5v-7z" id="CLOUDSSYMBOL_0_Layer0_21_MEMBER_1_FILL_1_"/><path class="st1" d="M432.2 200.2l-7 3.5v7l7-3.5v-7z" id="CLOUDSSYMBOL_0_Layer0_21_MEMBER_2_FILL_1_"/><path class="st1" d="M415.2 194.3l4-2-4-2-4 2 4 2z" id="CLOUDSSYMBOL_0_Layer0_22_MEMBER_0_FILL_1_"/><path class="st2" d="M415.2 194.3l-4-2v3.9l4 2v-3.9z" id="CLOUDSSYMBOL_0_Layer0_22_MEMBER_1_FILL_1_"/><path class="st1" d="M419.2 192.3l-4 2v3.9l4-2v-3.9z" id="CLOUDSSYMBOL_0_Layer0_22_MEMBER_2_FILL_1_"/><g><path class="st3" d="M400.7 132.7l-7.9 4 7.9 3.9 7.9-4-7.9-3.9z" id="ELEMENTSSYMBOL_0_Layer0_0_MEMBER_0_MEMBER_0_FILL_1_"/><path class="st4" d="M392.8 136.7v7.9l7.9 3.9v-7.9l-7.9-3.9z" id="ELEMENTSSYMBOL_0_Layer0_0_MEMBER_0_MEMBER_1_FILL_1_"/><path class="st5" d="M400.7 140.6v7.9l7.9-4v-7.9l-7.9 4z" id="ELEMENTSSYMBOL_0_Layer0_0_MEMBER_0_MEMBER_2_FILL_1_"/><path class="st3" d="M417.4 140.8l7.8-4-7.9-3.9-7.9 3.9 8 4z" id="ELEMENTSSYMBOL_0_Layer0_0_MEMBER_1_MEMBER_0_FILL_1_"/><path class="st4" d="M409.5 136.9v7.9l7.9 3.9-.1-7.9-7.8-3.9z" id="ELEMENTSSYMBOL_0_Layer0_0_MEMBER_1_MEMBER_1_FILL_1_"/><path class="st5" d="M425.2 136.8l-7.8 4v7.9l7.9-4-.1-7.9z" id="ELEMENTSSYMBOL_0_Layer0_0_MEMBER_1_MEMBER_2_FILL_1_"/><path class="st3" d="M428.1 146.1l7.9-4-7.9-3.9-7.9 4 7.9 3.9z" id="ELEMENTSSYMBOL_0_Layer0_0_MEMBER_2_MEMBER_0_FILL_1_"/><path class="st4" d="M428.1 146.1l-7.9-3.9v7.9l7.9 3.9v-7.9z" id="ELEMENTSSYMBOL_0_Layer0_0_MEMBER_2_MEMBER_1_FILL_1_"/><path class="st5" d="M436 142.1l-7.9 4 .1 7.9 7.8-4v-7.9z" id="ELEMENTSSYMBOL_0_Layer0_0_MEMBER_2_MEMBER_2_FILL_1_"/><path class="st5" d="M431.4 148.1l7.9 3.9 7.9-4-7.9-3.9-7.9 4z" id="ELEMENTSSYMBOL_0_Layer0_0_MEMBER_3_MEMBER_0_FILL_1_"/><path class="st4" d="M431.4 148.1l.1 7.9 7.9 3.9-.1-7.9-7.9-3.9z" id="ELEMENTSSYMBOL_0_Layer0_0_MEMBER_3_MEMBER_1_FILL_1_"/><path class="st6" d="M439.2 152.1l.1 7.9 7.9-4-.1-7.9-7.9 4z" id="ELEMENTSSYMBOL_0_Layer0_0_MEMBER_3_MEMBER_2_FILL_1_"/><path class="st5" d="M429.1 158.4l7.9-4-7.9-3.9-7.9 4 7.9 3.9z" id="ELEMENTSSYMBOL_0_Layer0_0_MEMBER_4_MEMBER_0_FILL_1_"/><path class="st4" d="M421.2 154.6v7.8l7.9 3.9-.1-7.9-7.8-3.8z" id="ELEMENTSSYMBOL_0_Layer0_0_MEMBER_4_MEMBER_1_FILL_1_"/><path class="st6" d="M437 154.4l-7.9 4 .1 7.9 7.8-4v-7.9z" id="ELEMENTSSYMBOL_0_Layer0_0_MEMBER_4_MEMBER_2_FILL_1_"/><path class="st3" d="M391.1 145.8l7.9-3.9-7.9-3.9-7.9 3.9 7.9 3.9z" id="ELEMENTSSYMBOL_0_Layer0_0_MEMBER_5_MEMBER_0_FILL_1_"/><path class="st4" d="M391.1 145.8l-7.9-3.9v7.9l8 3.9-.1-7.9z" id="ELEMENTSSYMBOL_0_Layer0_0_MEMBER_5_MEMBER_1_FILL_1_"/><path class="st5" d="M399 141.8l-7.9 3.9.1 7.9 7.8-4v-7.8z" id="ELEMENTSSYMBOL_0_Layer0_0_MEMBER_5_MEMBER_2_FILL_1_"/><path class="st6" d="M390 146.8l-7.9-3.9-7.9 4 7.9 3.9 7.9-4z" id="ELEMENTSSYMBOL_0_Layer0_0_MEMBER_6_MEMBER_0_FILL_1_"/><path class="st7" d="M374.3 154.8l7.9 3.9v-7.9l-7.9-3.9v7.9z" id="ELEMENTSSYMBOL_0_Layer0_0_MEMBER_6_MEMBER_1_FILL_1_"/><path class="st4" d="M382.2 150.8v7.9l7.9-4-.1-7.9-7.8 4z" id="ELEMENTSSYMBOL_0_Layer0_0_MEMBER_6_MEMBER_2_FILL_1_"/><path class="st3" d="M377.7 161.9l7.8-4-7.9-3.9-7.9 4 8 3.9z" id="ELEMENTSSYMBOL_0_Layer0_0_MEMBER_7_MEMBER_0_FILL_1_"/><path class="st4" d="M369.8 158.1l.1 7.8 7.9 3.9v-7.9l-8-3.8z" id="ELEMENTSSYMBOL_0_Layer0_0_MEMBER_7_MEMBER_1_FILL_1_"/><path class="st7" d="M385.5 157.9l-7.8 4v7.9l7.9-4-.1-7.9z" id="ELEMENTSSYMBOL_0_Layer0_0_MEMBER_7_MEMBER_2_FILL_1_"/><path class="st3" d="M387 166.9l7.9-3.9-7.9-3.9-7.9 4 7.9 3.8z" id="ELEMENTSSYMBOL_0_Layer0_0_MEMBER_8_MEMBER_0_FILL_1_"/><path class="st4" d="M379.1 163.1v7.8l7.9 3.9v-7.9l-7.9-3.8z" id="ELEMENTSSYMBOL_0_Layer0_0_MEMBER_8_MEMBER_1_FILL_1_"/><path class="st7" d="M394.8 162.9l-7.9 3.9v7.9l7.9-4v-7.8z" id="ELEMENTSSYMBOL_0_Layer0_0_MEMBER_8_MEMBER_2_FILL_1_"/><path class="st3" d="M396.9 164.1L389 168l7.9 3.9 7.9-3.9-7.9-3.9z" id="ELEMENTSSYMBOL_0_Layer0_0_MEMBER_9_MEMBER_0_FILL_1_"/><path class="st4" d="M389.1 168v7.9l7.9 3.9v-7.9l-7.9-3.9z" id="ELEMENTSSYMBOL_0_Layer0_0_MEMBER_9_MEMBER_1_FILL_1_"/><path class="st5" d="M397 171.9v7.9l7.9-4v-7.9l-7.9 4z" id="ELEMENTSSYMBOL_0_Layer0_0_MEMBER_9_MEMBER_2_FILL_1_"/><path class="st5" d="M388.7 149.4l7.9 3.9 7.9-4-7.9-3.9-7.9 4z" id="ELEMENTSSYMBOL_0_Layer0_0_MEMBER_10_MEMBER_0_FILL_1_"/><path class="st7" d="M388.7 149.4v7.9l7.9 3.9-.1-7.9-7.8-3.9z" id="ELEMENTSSYMBOL_0_Layer0_0_MEMBER_10_MEMBER_1_FILL_1_"/><path class="st4" d="M396.6 153.3l.1 7.9 7.8-3.9v-7.9l-7.9 3.9z" id="ELEMENTSSYMBOL_0_Layer0_0_MEMBER_10_MEMBER_2_FILL_1_"/><path class="st5" d="M406.9 159.1l7.9-4-7.9-3.9-7.9 4 7.9 3.9z" id="ELEMENTSSYMBOL_0_Layer0_0_MEMBER_11_MEMBER_0_FILL_1_"/><path class="st7" d="M399 155.1v7.9l7.9 3.9v-7.8l-7.9-4z" id="ELEMENTSSYMBOL_0_Layer0_0_MEMBER_11_MEMBER_1_FILL_1_"/><path class="st4" d="M414.7 155.1l-7.9 4 .1 7.8 7.8-3.9v-7.9z" id="ELEMENTSSYMBOL_0_Layer0_0_MEMBER_11_MEMBER_2_FILL_1_"/><path class="st3" d="M417.8 164.4l7.9-4-7.9-3.9-7.9 4 7.9 3.9z" id="ELEMENTSSYMBOL_0_Layer0_0_MEMBER_12_MEMBER_0_FILL_1_"/><path class="st5" d="M409.9 160.6l.1 7.9 7.9 3.9-.1-7.9-7.9-3.9z" id="ELEMENTSSYMBOL_0_Layer0_0_MEMBER_12_MEMBER_1_FILL_1_"/><path class="st6" d="M425.6 160.4l-7.9 4 .1 7.9 7.9-4-.1-7.9z" id="ELEMENTSSYMBOL_0_Layer0_0_MEMBER_12_MEMBER_2_FILL_1_"/><path class="st5" d="M44.4 142l7.8-4-7.9-3.9-7.9 4 8 3.9z" id="ELEMENTSSYMBOL_0_Layer0_1_MEMBER_0_MEMBER_0_FILL_1_"/><path class="st8" d="M36.4 138.1v7.9l7.9 3.9V142l-7.9-3.9z" id="ELEMENTSSYMBOL_0_Layer0_1_MEMBER_0_MEMBER_1_FILL_1_"/><path class="st6" d="M52.2 138l-7.8 4v7.9l7.9-4-.1-7.9z" id="ELEMENTSSYMBOL_0_Layer0_1_MEMBER_0_MEMBER_2_FILL_1_"/><path class="st5" d="M35 138.9l-7.8 3.9 7.9 3.9 7.8-4-7.9-3.8z" id="ELEMENTSSYMBOL_0_Layer0_1_MEMBER_1_MEMBER_0_FILL_1_"/><path class="st8" d="M35.1 146.8l-7.9-3.9v7.9l8 3.9-.1-7.9z" id="ELEMENTSSYMBOL_0_Layer0_1_MEMBER_1_MEMBER_1_FILL_1_"/><path class="st6" d="M42.9 142.8l-7.8 4v7.9l7.8-4v-7.9z" id="ELEMENTSSYMBOL_0_Layer0_1_MEMBER_1_MEMBER_2_FILL_1_"/><path class="st5" d="M33.3 147.7l-7.9-3.9-7.9 4 7.9 3.9 7.9-4z" id="ELEMENTSSYMBOL_0_Layer0_1_MEMBER_2_MEMBER_0_FILL_1_"/><path class="st8" d="M17.6 155.6l7.9 3.9v-7.9l-7.9-3.9v7.9z" id="ELEMENTSSYMBOL_0_Layer0_1_MEMBER_2_MEMBER_1_FILL_1_"/><path class="st6" d="M25.4 151.7v7.9l7.9-4-.1-7.9-7.8 4z" id="ELEMENTSSYMBOL_0_Layer0_1_MEMBER_2_MEMBER_2_FILL_1_"/><path class="st6" d="M15.1 156.8l7.9-4-7.9-3.9-7.9 4 7.9 3.9z" id="ELEMENTSSYMBOL_0_Layer0_1_MEMBER_3_MEMBER_0_FILL_1_"/><path class="st7" d="M7.2 152.9l.1 7.9 7.9 3.9-.1-7.9-7.9-3.9z" id="ELEMENTSSYMBOL_0_Layer0_1_MEMBER_3_MEMBER_1_FILL_1_"/><path class="st5" d="M22.9 152.8l-7.9 4 .1 7.9 7.8-4v-7.9z" id="ELEMENTSSYMBOL_0_Layer0_1_MEMBER_3_MEMBER_2_FILL_1_"/><path class="st3" d="M16.6 167.2l7.8-4-7.9-3.9-7.8 4 7.9 3.9z" id="ELEMENTSSYMBOL_0_Layer0_1_MEMBER_4_MEMBER_0_FILL_1_"/><path class="st7" d="M8.7 163.3l.1 7.8 7.9 3.9v-7.9l-8-3.8z" id="ELEMENTSSYMBOL_0_Layer0_1_MEMBER_4_MEMBER_1_FILL_1_"/><path class="st8" d="M24.5 163.2l-7.8 4v7.9l7.9-4-.1-7.9z" id="ELEMENTSSYMBOL_0_Layer0_1_MEMBER_4_MEMBER_2_FILL_1_"/><path class="st3" d="M26.8 171.8l7.9-4-7.9-3.9-7.8 3.9 7.8 4z" id="ELEMENTSSYMBOL_0_Layer0_1_MEMBER_5_MEMBER_0_FILL_1_"/><path class="st7" d="M18.9 167.9v7.9l7.9 3.9v-7.9l-7.9-3.9z" id="ELEMENTSSYMBOL_0_Layer0_1_MEMBER_5_MEMBER_1_FILL_1_"/><path class="st8" d="M34.6 167.8l-7.9 4v7.9l7.9-4v-7.9z" id="ELEMENTSSYMBOL_0_Layer0_1_MEMBER_5_MEMBER_2_FILL_1_"/><path class="st3" d="M50.9 163.1l7.8-4-7.9-3.9-7.9 4 8 3.9z" id="ELEMENTSSYMBOL_0_Layer0_1_MEMBER_6_MEMBER_0_FILL_1_"/><path class="st5" d="M42.9 159.1v7.9l7.9 3.9V163l-7.9-3.9z" id="ELEMENTSSYMBOL_0_Layer0_1_MEMBER_6_MEMBER_1_FILL_1_"/><path class="st8" d="M58.7 159.1l-7.8 4v7.9l7.9-4-.1-7.9z" id="ELEMENTSSYMBOL_0_Layer0_1_MEMBER_6_MEMBER_2_FILL_1_"/><path class="st3" d="M61.2 168.1l7.8-4-7.9-3.9-7.9 4 8 3.9z" id="ELEMENTSSYMBOL_0_Layer0_1_MEMBER_7_MEMBER_0_FILL_1_"/><path class="st8" d="M53.3 164.1l.1 7.9 7.9 3.9v-7.8l-8-4z" id="ELEMENTSSYMBOL_0_Layer0_1_MEMBER_7_MEMBER_1_FILL_1_"/><path class="st9" d="M69 164.1l-7.8 4v7.8l7.9-3.9-.1-7.9z" id="ELEMENTSSYMBOL_0_Layer0_1_MEMBER_7_MEMBER_2_FILL_1_"/><path class="st3" d="M50.3 173.6l7.8-4-7.9-3.9-7.8 4 7.9 3.9z" id="ELEMENTSSYMBOL_0_Layer0_1_MEMBER_8_MEMBER_0_FILL_1_"/><path class="st8" d="M42.4 169.6v7.9l7.9 3.8v-7.8l-7.9-3.9z" id="ELEMENTSSYMBOL_0_Layer0_1_MEMBER_8_MEMBER_1_FILL_1_"/><path class="st9" d="M58.2 169.6l-7.8 4v7.8l7.8-3.9v-7.9z" id="ELEMENTSSYMBOL_0_Layer0_1_MEMBER_8_MEMBER_2_FILL_1_"/><path class="st3" d="M36.9 169.1l-7.9 4 7.9 3.9 7.8-4-7.8-3.9z" id="ELEMENTSSYMBOL_0_Layer0_1_MEMBER_9_MEMBER_0_FILL_1_"/><path class="st7" d="M29 173.1v7.9l7.9 3.9v-7.8l-7.9-4z" id="ELEMENTSSYMBOL_0_Layer0_1_MEMBER_9_MEMBER_1_FILL_1_"/><path class="st9" d="M36.9 177v7.8l7.9-3.9-.1-7.9-7.8 4z" id="ELEMENTSSYMBOL_0_Layer0_1_MEMBER_9_MEMBER_2_FILL_1_"/><path class="st6" d="M233.5 195.8l7.8-4-7.9-3.9-7.9 4 8 3.9z" id="ELEMENTSSYMBOL_0_Layer0_2_MEMBER_0_MEMBER_0_FILL_1_"/><path class="st7" d="M233.5 195.8l-7.9-3.9.1 7.9 7.9 3.9-.1-7.9z" id="ELEMENTSSYMBOL_0_Layer0_2_MEMBER_0_MEMBER_1_FILL_1_"/><path class="st8" d="M241.3 191.8l-7.8 4 .1 7.9 7.8-3.9-.1-8z" id="ELEMENTSSYMBOL_0_Layer0_2_MEMBER_0_MEMBER_2_FILL_1_"/><path class="st6" d="M267.1 166.1l7.9-4-7.9-3.9-7.8 4 7.8 3.9z" id="ELEMENTSSYMBOL_0_Layer0_2_MEMBER_1_MEMBER_0_FILL_1_"/><path class="st4" d="M259.1 162.2l.1 7.9 7.9 3.9-.1-7.9-7.9-3.9z" id="ELEMENTSSYMBOL_0_Layer0_2_MEMBER_1_MEMBER_1_FILL_1_"/><path class="st5" d="M274.9 162.1l-7.9 4v7.9l7.9-3.9v-8z" id="ELEMENTSSYMBOL_0_Layer0_2_MEMBER_1_MEMBER_2_FILL_1_"/><path class="st6" d="M257.4 170.9l7.8-4-7.9-3.9-7.9 4 8 3.9z" id="ELEMENTSSYMBOL_0_Layer0_2_MEMBER_2_MEMBER_0_FILL_1_"/><path class="st4" d="M249.5 167l.1 7.9 7.9 3.9v-7.9l-8-3.9z" id="ELEMENTSSYMBOL_0_Layer0_2_MEMBER_2_MEMBER_1_FILL_1_"/><path class="st5" d="M265.2 166.9l-7.8 4v7.9l7.9-4-.1-7.9z" id="ELEMENTSSYMBOL_0_Layer0_2_MEMBER_2_MEMBER_2_FILL_1_"/><path class="st6" d="M247.8 175.7l7.8-3.9-7.9-3.9-7.9 4 8 3.8z" id="ELEMENTSSYMBOL_0_Layer0_2_MEMBER_3_MEMBER_0_FILL_1_"/><path class="st7" d="M239.8 171.8l.1 7.9 7.9 3.9-.1-7.9-7.9-3.9z" id="ELEMENTSSYMBOL_0_Layer0_2_MEMBER_3_MEMBER_1_FILL_1_"/><path class="st5" d="M255.6 171.8l-7.8 3.9.1 7.9 7.9-4-.2-7.8z" id="ELEMENTSSYMBOL_0_Layer0_2_MEMBER_3_MEMBER_2_FILL_1_"/><path class="st6" d="M249.7 184.7l7.9-3.9-7.9-3.9-7.8 4 7.8 3.8z" id="ELEMENTSSYMBOL_0_Layer0_2_MEMBER_4_MEMBER_0_FILL_1_"/><path class="st7" d="M241.8 180.8v7.9l7.9 3.9-.1-7.9-7.8-3.9z" id="ELEMENTSSYMBOL_0_Layer0_2_MEMBER_4_MEMBER_1_FILL_1_"/><path class="st9" d="M257.6 180.8l-7.9 3.9.1 7.9 7.9-4-.1-7.8z" id="ELEMENTSSYMBOL_0_Layer0_2_MEMBER_4_MEMBER_2_FILL_1_"/><path class="st6" d="M259 189.7l7.9-3.9-7.9-3.9-7.9 4 7.9 3.8z" id="ELEMENTSSYMBOL_0_Layer0_2_MEMBER_5_MEMBER_0_FILL_1_"/><path class="st7" d="M251.1 185.8l.1 7.9 7.9 3.9-.1-7.9-7.9-3.9z" id="ELEMENTSSYMBOL_0_Layer0_2_MEMBER_5_MEMBER_1_FILL_1_"/><path class="st9" d="M266.9 185.8l-7.9 3.9.1 7.9 7.9-4-.1-7.8z" id="ELEMENTSSYMBOL_0_Layer0_2_MEMBER_5_MEMBER_2_FILL_1_"/><path class="st6" d="M284 166.5l7.9-4-7.9-3.9-7.9 4 7.9 3.9z" id="ELEMENTSSYMBOL_0_Layer0_2_MEMBER_6_MEMBER_0_FILL_1_"/><path class="st7" d="M276.1 162.6v7.9l7.9 3.9v-7.8l-7.9-4z" id="ELEMENTSSYMBOL_0_Layer0_2_MEMBER_6_MEMBER_1_FILL_1_"/><path class="st5" d="M291.8 162.5l-7.9 4v7.8l7.9-3.9v-7.9z" id="ELEMENTSSYMBOL_0_Layer0_2_MEMBER_6_MEMBER_2_FILL_1_"/><path class="st3" d="M293.4 171.5l7.8-4-7.9-3.9-7.9 4 8 3.9z" id="ELEMENTSSYMBOL_0_Layer0_2_MEMBER_7_MEMBER_0_FILL_1_"/><path class="st7" d="M285.5 167.6l.1 7.9 7.9 3.9v-7.8l-8-4z" id="ELEMENTSSYMBOL_0_Layer0_2_MEMBER_7_MEMBER_1_FILL_1_"/><path class="st5" d="M301.2 167.5l-7.8 4v7.8l7.9-4-.1-7.8z" id="ELEMENTSSYMBOL_0_Layer0_2_MEMBER_7_MEMBER_2_FILL_1_"/><path class="st3" d="M299.1 180.7l7.9-4-7.9-3.9-7.8 4 7.8 3.9z" id="ELEMENTSSYMBOL_0_Layer0_2_MEMBER_8_MEMBER_0_FILL_1_"/><path class="st4" d="M291.2 176.8v7.9l7.9 3.9v-7.9l-7.9-3.9z" id="ELEMENTSSYMBOL_0_Layer0_2_MEMBER_8_MEMBER_1_FILL_1_"/><path class="st5" d="M306.9 176.7l-7.9 4v7.9l7.9-4v-7.9z" id="ELEMENTSSYMBOL_0_Layer0_2_MEMBER_8_MEMBER_2_FILL_1_"/><path class="st6" d="M289.4 185.1l7.9-3.9-7.9-3.9-7.9 3.9 7.9 3.9z" id="ELEMENTSSYMBOL_0_Layer0_2_MEMBER_9_MEMBER_0_FILL_1_"/><path class="st4" d="M281.5 181.2l.1 7.9 7.9 3.9v-7.9l-8-3.9z" id="ELEMENTSSYMBOL_0_Layer0_2_MEMBER_9_MEMBER_1_FILL_1_"/><path class="st5" d="M297.3 181.2l-7.9 3.9v7.9l7.9-4v-7.8z" id="ELEMENTSSYMBOL_0_Layer0_2_MEMBER_9_MEMBER_2_FILL_1_"/><path class="st6" d="M280.2 182.4l-7.8 4 7.9 3.9 7.9-4-8-3.9z" id="ELEMENTSSYMBOL_0_Layer0_2_MEMBER_10_MEMBER_0_FILL_1_"/><path class="st4" d="M272.4 186.4v7.9l7.9 3.9v-7.9l-7.9-3.9z" id="ELEMENTSSYMBOL_0_Layer0_2_MEMBER_10_MEMBER_1_FILL_1_"/><path class="st5" d="M288.2 194.2v-7.9l-7.9 4v7.9l7.9-4z" id="ELEMENTSSYMBOL_0_Layer0_2_MEMBER_10_MEMBER_2_FILL_1_"/><path class="st6" d="M270.3 195.1l7.9-4-7.9-3.9-7.9 4 7.9 3.9z" id="ELEMENTSSYMBOL_0_Layer0_2_MEMBER_11_MEMBER_0_FILL_1_"/><path class="st7" d="M270.3 195.1l-7.9-3.9v7.9l7.9 3.9v-7.9z" id="ELEMENTSSYMBOL_0_Layer0_2_MEMBER_11_MEMBER_1_FILL_1_"/><path class="st5" d="M278.3 190.8l-7.9 4v7.8l7.9-3.9v-7.9z" id="ELEMENTSSYMBOL_0_Layer0_2_MEMBER_11_MEMBER_2_FILL_1_"/><path class="st6" d="M267.7 196.6l-7.9-3.9-7.9 4 7.9 3.9 7.9-4z" id="ELEMENTSSYMBOL_0_Layer0_2_MEMBER_12_MEMBER_0_FILL_1_"/><path class="st7" d="M251.9 204.6l7.9 3.9v-7.9l-7.9-3.9v7.9z" id="ELEMENTSSYMBOL_0_Layer0_2_MEMBER_12_MEMBER_1_FILL_1_"/><path class="st4" d="M259.9 200.6v7.9l7.9-4v-7.9l-7.9 4z" id="ELEMENTSSYMBOL_0_Layer0_2_MEMBER_12_MEMBER_2_FILL_1_"/><path class="st6" d="M250.8 196.6l-7.9-3.9-7.8 4 7.9 3.9 7.8-4z" id="ELEMENTSSYMBOL_0_Layer0_2_MEMBER_13_MEMBER_0_FILL_1_"/><path class="st7" d="M243 208.6l-.1-7.9-7.9-3.9v7.9l8 3.9z" id="ELEMENTSSYMBOL_0_Layer0_2_MEMBER_13_MEMBER_1_FILL_1_"/><path class="st8" d="M242.9 200.6l.1 7.9 7.8-4v-7.9l-7.9 4z" id="ELEMENTSSYMBOL_0_Layer0_2_MEMBER_13_MEMBER_2_FILL_1_"/><path class="st6" d="M358.1 155.2l-7.9 4 7.9 3.9 7.9-4-7.9-3.9z" id="ELEMENTSSYMBOL_0_Layer0_3_MEMBER_0_MEMBER_0_FILL_1_"/><path class="st7" d="M350.2 159.2v7.9l7.9 3.9v-7.9l-7.9-3.9z" id="ELEMENTSSYMBOL_0_Layer0_3_MEMBER_0_MEMBER_1_FILL_1_"/><path class="st5" d="M358.1 163.1v7.9l7.9-3.9v-7.9l-7.9 3.9z" id="ELEMENTSSYMBOL_0_Layer0_3_MEMBER_0_MEMBER_2_FILL_1_"/><path class="st6" d="M348.2 168.1l7.9-4-7.9-3.9-7.9 4 7.9 3.9z" id="ELEMENTSSYMBOL_0_Layer0_3_MEMBER_1_MEMBER_0_FILL_1_"/><path class="st7" d="M340.4 164.2l.1 7.9 7.9 3.9-.1-7.9-7.9-3.9z" id="ELEMENTSSYMBOL_0_Layer0_3_MEMBER_1_MEMBER_1_FILL_1_"/><path class="st5" d="M356.2 164.1l-7.9 4 .1 7.9 7.9-3.9v-8z" id="ELEMENTSSYMBOL_0_Layer0_3_MEMBER_1_MEMBER_2_FILL_1_"/><path class="st6" d="M338.3 172.9l7.9-4-7.9-3.9-7.8 4 7.8 3.9z" id="ELEMENTSSYMBOL_0_Layer0_3_MEMBER_2_MEMBER_0_FILL_1_"/><path class="st7" d="M330.4 169v7.9l7.9 3.9v-7.9l-7.9-3.9z" id="ELEMENTSSYMBOL_0_Layer0_3_MEMBER_2_MEMBER_1_FILL_1_"/><path class="st5" d="M346.2 168.9l-7.9 4v7.9l7.9-4v-7.9z" id="ELEMENTSSYMBOL_0_Layer0_3_MEMBER_2_MEMBER_2_FILL_1_"/><path class="st3" d="M328.7 177.7l7.8-3.9-7.9-3.9-7.9 4 8 3.8z" id="ELEMENTSSYMBOL_0_Layer0_3_MEMBER_3_MEMBER_0_FILL_1_"/><path class="st8" d="M328.7 185.6v-7.9l-7.9-3.9.1 7.9 7.8 3.9z" id="ELEMENTSSYMBOL_0_Layer0_3_MEMBER_3_MEMBER_1_FILL_1_"/><path class="st5" d="M336.5 173.8l-7.8 3.9v7.9l7.9-4-.1-7.8z" id="ELEMENTSSYMBOL_0_Layer0_3_MEMBER_3_MEMBER_2_FILL_1_"/><path class="st6" d="M319.3 174.8l-7.9 4 7.9 3.9 7.9-4-7.9-3.9z" id="ELEMENTSSYMBOL_0_Layer0_3_MEMBER_4_MEMBER_0_FILL_1_"/><path class="st8" d="M311.5 178.8v7.9l7.9 3.9-.1-7.9-7.8-3.9z" id="ELEMENTSSYMBOL_0_Layer0_3_MEMBER_4_MEMBER_1_FILL_1_"/><path class="st5" d="M327.2 186.6v-7.9l-7.9 4 .1 7.9 7.8-4z" id="ELEMENTSSYMBOL_0_Layer0_3_MEMBER_4_MEMBER_2_FILL_1_"/><path class="st6" d="M321.1 185.2l-7.9 4 7.9 3.9 7.8-4-7.8-3.9z" id="ELEMENTSSYMBOL_0_Layer0_3_MEMBER_5_MEMBER_0_FILL_1_"/><path class="st4" d="M313.2 189.2v7.9l8 3.9v-7.9l-8-3.9z" id="ELEMENTSSYMBOL_0_Layer0_3_MEMBER_5_MEMBER_1_FILL_1_"/><path class="st8" d="M329.1 197l-.1-7.9-7.8 4v7.9l7.9-4z" id="ELEMENTSSYMBOL_0_Layer0_3_MEMBER_5_MEMBER_2_FILL_1_"/><path class="st3" d="M339.2 194.6l-7.9-3.9-7.8 4 7.9 3.9 7.8-4z" id="ELEMENTSSYMBOL_0_Layer0_3_MEMBER_6_MEMBER_0_FILL_1_"/><path class="st4" d="M331.4 206.4v-7.9l-7.9-3.9v7.9l7.9 3.9z" id="ELEMENTSSYMBOL_0_Layer0_3_MEMBER_6_MEMBER_1_FILL_1_"/><path class="st6" d="M331.3 198.6v7.9l7.9-3.9v-7.9l-7.9 3.9z" id="ELEMENTSSYMBOL_0_Layer0_3_MEMBER_6_MEMBER_2_FILL_1_"/><path class="st10" d="M349.6 107.7c0-1.7-.6-3.2-1.8-4.4-1.2-1.2-2.7-1.8-4.4-1.8-1.7 0-3.2.6-4.4 1.8-1.2 1.2-1.9 2.7-1.9 4.4s.6 3.2 1.9 4.4c1.2 1.2 2.7 1.8 4.4 1.8 1.7 0 3.2-.6 4.4-1.8 1.2-1.2 1.8-2.7 1.8-4.4z" id="ELEMENTSSYMBOL_0_Layer0_4_MEMBER_0_MEMBER_0_FILL_1_"/><path class="st5" d="M344.4 98.7l-.9.4v4.7l.9-.6v-4.5z" id="ELEMENTSSYMBOL_0_Layer0_4_MEMBER_0_MEMBER_1_FILL_1_"/><path class="st8" d="M343.5 99.1l-.9-.4v4.5l.9.6v-4.7z" id="ELEMENTSSYMBOL_0_Layer0_4_MEMBER_0_MEMBER_2_FILL_1_"/><path class="st3" d="M343.5 99.1l.9-.4-.9-.4-.9.4.9.4z" id="ELEMENTSSYMBOL_0_Layer0_4_MEMBER_0_MEMBER_3_FILL_1_"/><path class="st3" d="M346.7 99.6l2-1-2-.9-2 .9 2 1z" id="ELEMENTSSYMBOL_0_Layer0_4_MEMBER_0_MEMBER_4_MEMBER_0_FILL_1_"/><path class="st8" d="M346.7 99.6l-2-1v.9l2 .9v-.8z" id="ELEMENTSSYMBOL_0_Layer0_4_MEMBER_0_MEMBER_4_MEMBER_1_FILL_1_"/><path class="st5" d="M348.7 98.6l-2 1v.8l2-.9v-.9z" id="ELEMENTSSYMBOL_0_Layer0_4_MEMBER_0_MEMBER_4_MEMBER_2_FILL_1_"/><path class="st11" d="M319.6 108.1c0-1.7-.6-3.2-1.8-4.3-1.2-1.2-2.7-1.8-4.4-1.8-1.7 0-3.2.6-4.4 1.8-1.2 1.2-1.8 2.7-1.8 4.3 0 1.7.6 3.2 1.8 4.4 1.2 1.2 2.7 1.8 4.4 1.8 1.7 0 3.2-.6 4.4-1.8 1.2-1.2 1.8-2.6 1.8-4.4z" id="ELEMENTSSYMBOL_0_Layer0_4_MEMBER_1_MEMBER_0_FILL_1_"/><path class="st5" d="M314.4 99.2l-.9.3v4.7l.9-.6v-4.4z" id="ELEMENTSSYMBOL_0_Layer0_4_MEMBER_1_MEMBER_1_FILL_1_"/><path class="st8" d="M313.5 99.5l-.8-.3-.1 4.5.9.6v-4.8z" id="ELEMENTSSYMBOL_0_Layer0_4_MEMBER_1_MEMBER_2_FILL_1_"/><path class="st3" d="M313.5 99.6l.9-.4-.9-.4-.9.4.9.4z" id="ELEMENTSSYMBOL_0_Layer0_4_MEMBER_1_MEMBER_3_FILL_1_"/><path class="st3" d="M316.8 100.1l2-1-2-1-1.9 1 1.9 1z" id="ELEMENTSSYMBOL_0_Layer0_4_MEMBER_1_MEMBER_4_MEMBER_0_FILL_1_"/><path class="st8" d="M316.8 100l-1.9-.9v.8l1.9.9v-.8z" id="ELEMENTSSYMBOL_0_Layer0_4_MEMBER_1_MEMBER_4_MEMBER_1_FILL_1_"/><path class="st5" d="M318.7 99.1l-2 .9v.8l2-.9v-.8z" id="ELEMENTSSYMBOL_0_Layer0_4_MEMBER_1_MEMBER_4_MEMBER_2_FILL_1_"/><path class="st8" d="M329 134.3l-3.1-1.5v39.8l3.1 1.6v-39.9z" id="ELEMENTSSYMBOL_0_Layer0_4_MEMBER_2_MEMBER_0_FILL_1_"/><path class="st5" d="M331.9 132.9l-2.9 1.4v39.9l2.9-1.4v-39.9z" id="ELEMENTSSYMBOL_0_Layer0_4_MEMBER_2_MEMBER_1_FILL_1_"/><path class="st3" d="M328.5 123.8l26-13-26-13-26 13 26 13z" id="ELEMENTSSYMBOL_0_Layer0_4_MEMBER_2_MEMBER_2_FILL_1_"/><path class="st4" d="M328.5 148.2v-24.4l-26-13v24.4l26 13z" id="ELEMENTSSYMBOL_0_Layer0_4_MEMBER_2_MEMBER_3_FILL_1_"/><path class="st6" d="M354.5 110.8l-26 13v24.4l26-13v-24.4z" id="ELEMENTSSYMBOL_0_Layer0_4_MEMBER_2_MEMBER_4_FILL_1_"/><path class="st10" d="M349.1 129.3c0-1.7-.6-3.1-1.8-4.3-1.2-1.2-2.7-1.9-4.4-1.9-1.7 0-3.2.6-4.4 1.9-1.2 1.2-1.8 2.6-1.8 4.3 0 1.7.6 3.2 1.8 4.4 1.2 1.2 2.7 1.8 4.4 1.8 1.7 0 3.2-.6 4.4-1.8 1.2-1.2 1.8-2.6 1.8-4.4z" id="ELEMENTSSYMBOL_0_Layer0_4_MEMBER_3_MEMBER_0_FILL_1_"/><path class="st5" d="M343.9 120.4l-.9.4v4.7l.9-.6v-4.5z" id="ELEMENTSSYMBOL_0_Layer0_4_MEMBER_3_MEMBER_1_FILL_1_"/><path class="st8" d="M343 120.8l-.9-.4v4.5l.9.6v-4.7z" id="ELEMENTSSYMBOL_0_Layer0_4_MEMBER_3_MEMBER_2_FILL_1_"/><path class="st3" d="M343 120.8l.9-.4-.9-.5-.9.5.9.4z" id="ELEMENTSSYMBOL_0_Layer0_4_MEMBER_3_MEMBER_3_FILL_1_"/><path class="st3" d="M346.2 121.2l2-1-2-.9-2 .9 2 1z" id="ELEMENTSSYMBOL_0_Layer0_4_MEMBER_3_MEMBER_4_MEMBER_0_FILL_1_"/><path class="st8" d="M346.2 121.2l-2-1v.8l2 1v-.8z" id="ELEMENTSSYMBOL_0_Layer0_4_MEMBER_3_MEMBER_4_MEMBER_1_FILL_1_"/><path class="st5" d="M348.2 120.3l-2 1v.8l2-1v-.8z" id="ELEMENTSSYMBOL_0_Layer0_4_MEMBER_3_MEMBER_4_MEMBER_2_FILL_1_"/><path class="st11" d="M318.4 129.3c0-1.7-.6-3.1-1.8-4.3-1.2-1.2-2.7-1.9-4.4-1.9-1.7 0-3.2.6-4.4 1.9-1.2 1.2-1.8 2.6-1.8 4.3 0 1.7.6 3.2 1.8 4.4 1.2 1.2 2.7 1.8 4.4 1.8 1.7 0 3.2-.6 4.4-1.8 1.2-1.2 1.8-2.6 1.8-4.4z" id="ELEMENTSSYMBOL_0_Layer0_4_MEMBER_4_MEMBER_0_FILL_1_"/><path class="st5" d="M313.2 121.1l-.9.3v4.7l.9-.5v-4.5z" id="ELEMENTSSYMBOL_0_Layer0_4_MEMBER_4_MEMBER_1_FILL_1_"/><path class="st8" d="M312.3 121.4l-.9-.3v4.5l.9.5v-4.7z" id="ELEMENTSSYMBOL_0_Layer0_4_MEMBER_4_MEMBER_2_FILL_1_"/><path class="st3" d="M312.3 121.5l.9-.5-.9-.4-.9.4.9.5z" id="ELEMENTSSYMBOL_0_Layer0_4_MEMBER_4_MEMBER_3_FILL_1_"/><path class="st3" d="M315.6 121.9l1.9-.9-1.9-1-2 1 2 .9z" id="ELEMENTSSYMBOL_0_Layer0_4_MEMBER_4_MEMBER_4_MEMBER_0_FILL_1_"/><path class="st8" d="M315.6 121.9l-2-.9v.8l2 .9v-.8z" id="ELEMENTSSYMBOL_0_Layer0_4_MEMBER_4_MEMBER_4_MEMBER_1_FILL_1_"/><path class="st5" d="M317.5 121l-1.9.9v.8l1.9-.9v-.8z" id="ELEMENTSSYMBOL_0_Layer0_4_MEMBER_4_MEMBER_4_MEMBER_2_FILL_1_"/><path class="st3" d="M320.6 154.9l2.5-1.2-2.5-1.2-2.5 1.2 2.5 1.2z" id="ELEMENTSSYMBOL_0_Layer0_4_MEMBER_5_MEMBER_0_FILL_1_"/><path class="st8" d="M320.6 154.9l-2.5-1.2v1.1l2.5 1.2v-1.1z" id="ELEMENTSSYMBOL_0_Layer0_4_MEMBER_5_MEMBER_1_FILL_1_"/><path class="st5" d="M323.1 153.8l-2.5 1.2v1.1l2.5-1.2v-1.1z" id="ELEMENTSSYMBOL_0_Layer0_4_MEMBER_5_MEMBER_2_FILL_1_"/><path class="st10" d="M354.7 159.4c0-1.7-.6-3.2-1.8-4.4-1.2-1.2-2.7-1.8-4.4-1.8-1.7 0-3.1.6-4.3 1.8-1.2 1.2-1.9 2.7-1.9 4.4 0 1.7.6 3.2 1.9 4.4 1.2 1.2 2.6 1.9 4.3 1.9 1.7 0 3.2-.6 4.4-1.9 1.2-1.2 1.8-2.6 1.8-4.4z" id="ELEMENTSSYMBOL_0_Layer0_5_MEMBER_0_FILL_1_"/><path class="st5" d="M349.5 150.5l-.9.4v4.7l.9-.6v-4.5z" id="ELEMENTSSYMBOL_0_Layer0_5_MEMBER_1_FILL_1_"/><path class="st8" d="M348.6 150.9l-.9-.4v4.5l.9.6v-4.7z" id="ELEMENTSSYMBOL_0_Layer0_5_MEMBER_2_FILL_1_"/><path class="st3" d="M348.7 150.9l.9-.4-.9-.4-.9.4.9.4z" id="ELEMENTSSYMBOL_0_Layer0_5_MEMBER_3_FILL_1_"/><path class="st3" d="M351.9 151.4l2-1-2-.9-1.9.9 1.9 1z" id="ELEMENTSSYMBOL_0_Layer0_5_MEMBER_4_MEMBER_0_FILL_1_"/><path class="st8" d="M351.9 151.3l-1.9-.9v.9l1.9.9v-.9z" id="ELEMENTSSYMBOL_0_Layer0_5_MEMBER_4_MEMBER_1_FILL_1_"/><path class="st5" d="M353.8 150.4l-2 .9v.9l2-.9v-.9z" id="ELEMENTSSYMBOL_0_Layer0_5_MEMBER_4_MEMBER_2_FILL_1_"/><path class="st10" d="M336.9 188.4c0-1.7-.6-3.2-1.9-4.4-1.2-1.2-2.7-1.8-4.4-1.8-1.7 0-3.1.6-4.4 1.8-1.2 1.2-1.8 2.7-1.8 4.4 0 1.7.6 3.2 1.8 4.4 1.2 1.2 2.6 1.8 4.4 1.8 1.7 0 3.2-.6 4.4-1.8 1.2-1.2 1.9-2.7 1.9-4.4z" id="ELEMENTSSYMBOL_0_Layer0_6_MEMBER_0_FILL_1_"/><path class="st5" d="M331.7 179.4l-1 .4v4.7l1-.6v-4.5z" id="ELEMENTSSYMBOL_0_Layer0_6_MEMBER_1_FILL_1_"/><path class="st8" d="M330.7 179.8l-.9-.4v4.5l.9.6v-4.7z" id="ELEMENTSSYMBOL_0_Layer0_6_MEMBER_2_FILL_1_"/><path class="st3" d="M330.8 179.9l.9-.4-.9-.4-.9.4.9.4z" id="ELEMENTSSYMBOL_0_Layer0_6_MEMBER_3_FILL_1_"/><path class="st3" d="M334 180.3l2-.9-2-.9-1.9.9 1.9.9z" id="ELEMENTSSYMBOL_0_Layer0_6_MEMBER_4_MEMBER_0_FILL_1_"/><path class="st8" d="M334 180.3l-1.9-.9v.9l1.9.9v-.9z" id="ELEMENTSSYMBOL_0_Layer0_6_MEMBER_4_MEMBER_1_FILL_1_"/><path class="st5" d="M336 179.4l-2 .9v.9l2-.9v-.9z" id="ELEMENTSSYMBOL_0_Layer0_6_MEMBER_4_MEMBER_2_FILL_1_"/><path class="st4" d="M293.6 161.1l-6.5-3.2v8.7l6.5 3.2v-8.7z" id="ELEMENTSSYMBOL_0_Layer0_7_MEMBER_0_FILL_1_"/><path class="st5" d="M299.7 158.1l-6.1 3.1v8.7l6.1-3.1v-8.7z" id="ELEMENTSSYMBOL_0_Layer0_7_MEMBER_1_FILL_1_"/><path class="st3" d="M293.1 154.9l-6 3 6.5 3.2 6-3-6.5-3.2z" id="ELEMENTSSYMBOL_0_Layer0_7_MEMBER_2_FILL_1_"/><path class="st4" d="M293.3 154.8l-3.8-1.9v5.6l3.8 1.9v-5.6z" id="ELEMENTSSYMBOL_0_Layer0_7_MEMBER_3_FILL_1_"/><path class="st5" d="M296.9 153.1l-3.5 1.8v5.6l3.5-1.8v-5.6z" id="ELEMENTSSYMBOL_0_Layer0_7_MEMBER_4_FILL_1_"/><path class="st3" d="M293 151.2l-3.5 1.8 3.8 1.9 3.5-1.8-3.8-1.9z" id="ELEMENTSSYMBOL_0_Layer0_7_MEMBER_5_FILL_1_"/><path class="st5" d="M293.7 149l-.7.3v3.6l.7-.4V149z" id="ELEMENTSSYMBOL_0_Layer0_7_MEMBER_6_MEMBER_0_FILL_1_"/><path class="st8" d="M293 149.3l-.6-.3v3.4l.6.4v-3.5z" id="ELEMENTSSYMBOL_0_Layer0_7_MEMBER_6_MEMBER_1_FILL_1_"/><path class="st3" d="M293.1 149.3l.7-.3-.7-.4-.7.4.7.3z" id="ELEMENTSSYMBOL_0_Layer0_7_MEMBER_6_MEMBER_2_FILL_1_"/><path class="st3" d="M295.5 149.6l1.5-.7-1.5-.8-1.5.8 1.5.7z" id="ELEMENTSSYMBOL_0_Layer0_7_MEMBER_6_MEMBER_3_MEMBER_0_FILL_1_"/><path class="st8" d="M295.5 149.6l-1.5-.7v.6l1.5.8v-.7z" id="ELEMENTSSYMBOL_0_Layer0_7_MEMBER_6_MEMBER_3_MEMBER_1_FILL_1_"/><path class="st5" d="M297 148.9l-1.5.7v.7l1.5-.8v-.6z" id="ELEMENTSSYMBOL_0_Layer0_7_MEMBER_6_MEMBER_3_MEMBER_2_FILL_1_"/><path class="st6" d="M110.4 138.2l7.8-3.9-7.9-3.9-7.8 4 7.9 3.8z" id="ELEMENTSSYMBOL_0_Layer0_8_MEMBER_0_MEMBER_0_FILL_1_"/><path class="st7" d="M102.5 134.3l.1 7.9 7.9 3.9-.1-7.9-7.9-3.9z" id="ELEMENTSSYMBOL_0_Layer0_8_MEMBER_0_MEMBER_1_FILL_1_"/><path class="st5" d="M118.3 134.2l-7.8 3.9.1 7.9 7.8-4-.1-7.8z" id="ELEMENTSSYMBOL_0_Layer0_8_MEMBER_0_MEMBER_2_FILL_1_"/><path class="st6" d="M101.7 142.8l7.8-3.9-7.9-3.9-7.9 3.9 8 3.9z" id="ELEMENTSSYMBOL_0_Layer0_8_MEMBER_1_MEMBER_0_FILL_1_"/><path class="st7" d="M93.8 138.9v7.9l7.9 3.9-.1-7.9-7.8-3.9z" id="ELEMENTSSYMBOL_0_Layer0_8_MEMBER_1_MEMBER_1_FILL_1_"/><path class="st5" d="M109.5 138.9l-7.8 3.9v7.9l7.9-4-.1-7.8z" id="ELEMENTSSYMBOL_0_Layer0_8_MEMBER_1_MEMBER_2_FILL_1_"/><path class="st6" d="M92.5 147.8l7.8-4-7.9-3.8-7.9 3.9 8 3.9z" id="ELEMENTSSYMBOL_0_Layer0_8_MEMBER_2_MEMBER_0_FILL_1_"/><path class="st7" d="M92.5 147.8l-7.9-3.9.1 7.9 7.9 3.9-.1-7.9z" id="ELEMENTSSYMBOL_0_Layer0_8_MEMBER_2_MEMBER_1_FILL_1_"/><path class="st5" d="M100.4 143.8l-7.8 4 .1 7.9 7.8-4-.1-7.9z" id="ELEMENTSSYMBOL_0_Layer0_8_MEMBER_2_MEMBER_2_FILL_1_"/><path class="st6" d="M92 158.2l7.8-4-7.9-3.9-7.9 4 8 3.9z" id="ELEMENTSSYMBOL_0_Layer0_8_MEMBER_3_MEMBER_0_FILL_1_"/><path class="st7" d="M84.1 154.3l.1 7.8 7.9 3.9-.1-7.9-7.9-3.8z" id="ELEMENTSSYMBOL_0_Layer0_8_MEMBER_3_MEMBER_1_FILL_1_"/><path class="st5" d="M99.9 154.2l-7.8 4 .1 7.9 7.8-4-.1-7.9z" id="ELEMENTSSYMBOL_0_Layer0_8_MEMBER_3_MEMBER_2_FILL_1_"/><path class="st3" d="M101.3 163.8l7.8-4-7.9-3.8-7.8 3.9 7.9 3.9z" id="ELEMENTSSYMBOL_0_Layer0_8_MEMBER_4_MEMBER_0_FILL_1_"/><path class="st7" d="M93.4 159.9l.1 7.9 7.9 3.9v-7.9l-8-3.9z" id="ELEMENTSSYMBOL_0_Layer0_8_MEMBER_4_MEMBER_1_FILL_1_"/><path class="st5" d="M109.2 159.8l-7.8 4v7.9l7.9-4-.1-7.9z" id="ELEMENTSSYMBOL_0_Layer0_8_MEMBER_4_MEMBER_2_FILL_1_"/><path class="st3" d="M110.8 168.8l7.8-4-7.9-3.9-7.9 4 8 3.9z" id="ELEMENTSSYMBOL_0_Layer0_8_MEMBER_5_MEMBER_0_FILL_1_"/><path class="st8" d="M102.9 164.9l.1 7.9 7.9 3.9-.1-7.9-7.9-3.9z" id="ELEMENTSSYMBOL_0_Layer0_8_MEMBER_5_MEMBER_1_FILL_1_"/><path class="st6" d="M118.6 164.8l-7.8 4 .1 7.9 7.8-4-.1-7.9z" id="ELEMENTSSYMBOL_0_Layer0_8_MEMBER_5_MEMBER_2_FILL_1_"/><path class="st3" d="M126.9 138.4l7.9-4-7.9-3.9-7.8 4 7.8 3.9z" id="ELEMENTSSYMBOL_0_Layer0_8_MEMBER_6_MEMBER_0_FILL_1_"/><path class="st4" d="M127 146.3l-.1-7.9-7.9-3.9.1 7.9 7.9 3.9z" id="ELEMENTSSYMBOL_0_Layer0_8_MEMBER_6_MEMBER_1_FILL_1_"/><path class="st5" d="M134.8 134.4l-7.9 4 .1 7.9 7.8-4v-7.9z" id="ELEMENTSSYMBOL_0_Layer0_8_MEMBER_6_MEMBER_2_FILL_1_"/><path class="st3" d="M136.6 143.2l7.9-3.9-7.9-3.9-7.9 4 7.9 3.8z" id="ELEMENTSSYMBOL_0_Layer0_8_MEMBER_7_MEMBER_0_FILL_1_"/><path class="st4" d="M128.7 139.3l.1 7.9 7.9 3.9-.1-7.9-7.9-3.9z" id="ELEMENTSSYMBOL_0_Layer0_8_MEMBER_7_MEMBER_1_FILL_1_"/><path class="st5" d="M144.4 139.2l-7.9 3.9.1 7.9 7.9-4-.1-7.8z" id="ELEMENTSSYMBOL_0_Layer0_8_MEMBER_7_MEMBER_2_FILL_1_"/><path class="st3" d="M153.2 144.4l-7.9-3.9-7.9 4 7.9 3.8 7.9-3.9z" id="ELEMENTSSYMBOL_0_Layer0_8_MEMBER_8_MEMBER_0_FILL_1_"/><path class="st4" d="M137.5 152.3l7.9 3.9-.1-7.9-7.9-3.8.1 7.8z" id="ELEMENTSSYMBOL_0_Layer0_8_MEMBER_8_MEMBER_1_FILL_1_"/><path class="st5" d="M145.3 148.3l.1 7.9 7.9-4-.1-7.9-7.9 4z" id="ELEMENTSSYMBOL_0_Layer0_8_MEMBER_8_MEMBER_2_FILL_1_"/><path class="st3" d="M145.9 159.4l7.9-4-7.9-3.9-7.8 4 7.8 3.9z" id="ELEMENTSSYMBOL_0_Layer0_8_MEMBER_9_MEMBER_0_FILL_1_"/><path class="st4" d="M138 155.5l.1 7.8 7.9 3.9-.1-7.9-7.9-3.8z" id="ELEMENTSSYMBOL_0_Layer0_8_MEMBER_9_MEMBER_1_FILL_1_"/><path class="st6" d="M153.8 155.4l-7.9 4 .1 7.9 7.9-3.9-.1-8z" id="ELEMENTSSYMBOL_0_Layer0_8_MEMBER_9_MEMBER_2_FILL_1_"/><path class="st3" d="M137.1 164.1l7.9-4-7.9-3.9-7.9 4 7.9 3.9z" id="ELEMENTSSYMBOL_0_Layer0_8_MEMBER_10_MEMBER_0_FILL_1_"/><path class="st4" d="M129.2 160.1l.1 7.9 7.9 3.9-.1-7.8-7.9-4z" id="ELEMENTSSYMBOL_0_Layer0_8_MEMBER_10_MEMBER_1_FILL_1_"/><path class="st6" d="M144.9 160.1l-7.9 4 .1 7.8 7.9-3.9-.1-7.9z" id="ELEMENTSSYMBOL_0_Layer0_8_MEMBER_10_MEMBER_2_FILL_1_"/><path class="st3" d="M128 169l7.8-3.9-7.9-3.9-7.8 3.9 7.9 3.9z" id="ELEMENTSSYMBOL_0_Layer0_8_MEMBER_11_MEMBER_0_FILL_1_"/><path class="st4" d="M120.1 165.1v7.9l7.9 3.9V169l-7.9-3.9z" id="ELEMENTSSYMBOL_0_Layer0_8_MEMBER_11_MEMBER_1_FILL_1_"/><path class="st6" d="M135.8 165.1L128 169l.1 7.9 7.8-4-.1-7.8z" id="ELEMENTSSYMBOL_0_Layer0_8_MEMBER_11_MEMBER_2_FILL_1_"/><path class="st6" d="M9.9 137.9l-1.2.6v15.1l1.2-.6v-15.1z" id="ELEMENTSSYMBOL_0_Layer0_9_MEMBER_0_FILL_1_"/><path class="st7" d="M8.6 138.6l-1.4-.7V153l1.4.7v-15.1z" id="ELEMENTSSYMBOL_0_Layer0_9_MEMBER_1_FILL_1_"/><path class="st12" d="M15 132.2c-.6-1.2-1.3-2-2.2-2.4 0-1.1-.2-2.1-.6-3-.4-.9-1-1.6-1.6-2.1s-1.2-.5-1.8-.3l-2.3 1 .1 1.9c-.4 0-.7.1-1.1.4-.1.1-.2.2-.4.3l-.9.4.3 1.4c-.2 1.2 0 2.4.5 3.7.3.7.7 1.3 1.1 1.7 1.8 4.6 2.8 6.9 2.9 7 1.6-.7 2.5-1.1 2.7-1.3.5-.5.8-1.1.9-2l1.2-.7.6-.3c.6-.5 1-1.3 1.1-2.4.2-1 0-2.1-.5-3.3z" id="ELEMENTSSYMBOL_0_Layer0_9_MEMBER_2_MEMBER_0_FILL_1_"/><path class="st13" d="M12.8 133.3c-.6-1.3-1.3-2.1-2.1-2.4 0-1-.2-2-.7-3.1-.5-1.1-1.1-1.8-1.9-2.2-.8-.4-1.5-.3-2.1.2-.6.6-.9 1.5-1 2.7-.6-.3-1.2-.2-1.7.2-.6.5-1 1.4-1 2.5-.1 1.1.1 2.2.5 3.3.5 1.2 1.2 2 2.2 2.4 0 1.1.2 2.1.7 3 .5 1.1 1.2 1.8 2 2.2.8.4 1.4.3 2-.2.6-.6.9-1.5 1-2.7.7.2 1.3.1 1.8-.3.6-.5.9-1.3 1.1-2.4s-.3-2.1-.8-3.2z" id="ELEMENTSSYMBOL_0_Layer0_9_MEMBER_2_MEMBER_1_FILL_1_"/><path class="st3" d="M5.1 133c-.1 1 .1 1.9.5 2.8.4.9.9 1.5 1.5 1.9s1.2.3 1.7-.2c.5-.4.8-1.1.9-2.1.1-1-.1-1.9-.4-2.9-.4-.9-.9-1.5-1.6-1.8-.6-.3-1.2-.3-1.7.1-.5.6-.8 1.3-.9 2.2z" id="ELEMENTSSYMBOL_0_Layer0_9_MEMBER_2_MEMBER_2_FILL_1_"/><path class="st5" d="M230.1 179.2l-.8.5v14.1l.8-.3v-14.3z" id="ELEMENTSSYMBOL_0_Layer0_10_MEMBER_0_FILL_1_"/><path class="st7" d="M229.3 179.8l-.8-.5v14.1l.8.4v-14z" id="ELEMENTSSYMBOL_0_Layer0_10_MEMBER_1_FILL_1_"/><path class="st7" d="M222.1 177.5v1.7c0 .5.4 1 1.1 1.5l-1.4.1v1.7c.1.6.6 1.2 1.4 1.6.9.4 2 .6 3.2.6 1.1-.1 1.9-.3 2.6-.6 1 .5 2.1.7 3.2.7 1.2 0 2.2-.2 3-.6.9-.4 1.3-1 1.4-1.6l.1-1.7h-1.2c.9-.4 1.4-1 1.5-1.7v-1.6l-14.9-.1z" id="ELEMENTSSYMBOL_0_Layer0_10_MEMBER_2_MEMBER_0_FILL_1_"/><path class="st14" d="M235.6 179.5c1-.5 1.5-1.1 1.5-1.9-.1-.6-.6-1.2-1.5-1.6-.9-.4-2-.6-3.2-.6-1 0-1.9.2-2.7.6-.8-.5-1.9-.7-3.2-.7-1.2 0-2.3.3-3.1.8-.9.5-1.3 1-1.2 1.6 0 .6.4 1.1 1.1 1.6-1 .5-1.4 1.1-1.4 1.8.1.6.6 1.2 1.4 1.6.9.4 2 .6 3.2.6 1.1-.1 1.9-.3 2.6-.6 1 .5 2.1.7 3.2.7 1.2 0 2.3-.2 3.2-.7s1.3-1 1.2-1.7c0-.6-.4-1.1-1.1-1.5z" id="ELEMENTSSYMBOL_0_Layer0_10_MEMBER_2_MEMBER_1_FILL_1_"/><path class="st8" d="M233 179.2l.1-1.2h-.7c-.8-.7-2-.9-3.4-.9-1.2 0-2.2.3-2.9.9h-.6l.1 1.2c.1.5.5 1 1.3 1.3.8.3 1.7.5 2.7.4.9 0 1.7-.2 2.4-.6.6-.2.9-.6 1-1.1z" id="ELEMENTSSYMBOL_0_Layer0_10_MEMBER_3_FILL_1_"/><path class="st15" d="M233 177.9c-.1-.5-.5-1-1.3-1.3-.8-.3-1.7-.5-2.7-.4-1 0-1.9.2-2.6.7-.7.4-.9.9-.8 1.4.1.5.5 1 1.3 1.3.8.3 1.7.5 2.7.4 1.1 0 1.9-.2 2.6-.6.6-.5.9-1 .8-1.5z" id="ELEMENTSSYMBOL_0_Layer0_10_MEMBER_4_FILL_1_"/><path class="st14" d="M225.9 188.9l2.1-1.1-2.1-1.1-2.2 1.1 2.2 1.1z" id="ELEMENTSSYMBOL_0_Layer0_10_MEMBER_5_FILL_1_"/><path class="st8" d="M225.9 188.9l-2.2-1.1v.9l2.2 1.1v-.9z" id="ELEMENTSSYMBOL_0_Layer0_10_MEMBER_6_FILL_1_"/><path class="st5" d="M228.1 187.8l-2.1 1.1v.9l2.1-1.1v-.9z" id="ELEMENTSSYMBOL_0_Layer0_10_MEMBER_7_FILL_1_"/><path class="st5" d="M329.1 105.6l-2.4-1.2-8.8 4.4 2.4 1.2 8.7-4.3 8.9 4.4 2.3-1.2-8.8-4.4-2.3 1.1z" id="ELEMENTSSYMBOL_0_Layer0_11_MEMBER_0_FILL_1_"/><path class="st5" d="M340.2 111.2l-2.3-1.2-8.7 4.3-8.9-4.4-2.3 1.1 8.8 4.5 2.2-1.2 2.4 1.2 8.8-4.3z" id="ELEMENTSSYMBOL_0_Layer0_11_MEMBER_1_FILL_1_"/><path class="st16" d="M214 189.3l-31.8-15.7-31.6 16 31.8 15.7 31.6-16z" id="ELEMENTSSYMBOL_0_Layer0_12_FILL_1_"/><path class="st3" d="M172.8 170.2l7.8-4-7.9-3.9-7.9 4 8 3.9z" id="ELEMENTSSYMBOL_0_Layer0_13_MEMBER_0_FILL_1_"/><path class="st8" d="M164.9 166.3l.1 7.9 7.9 3.9v-7.9l-8-3.9z" id="ELEMENTSSYMBOL_0_Layer0_13_MEMBER_1_FILL_1_"/><path class="st5" d="M180.6 166.2l-7.8 4v7.9l7.9-4-.1-7.9z" id="ELEMENTSSYMBOL_0_Layer0_13_MEMBER_2_FILL_1_"/><path class="st3" d="M163 175.2l7.8-4-7.9-3.9-7.9 4 8 3.9z" id="ELEMENTSSYMBOL_0_Layer0_14_MEMBER_0_FILL_1_"/><path class="st8" d="M163.1 183.1l-.1-7.8-7.9-3.9.1 7.9 7.9 3.8z" id="ELEMENTSSYMBOL_0_Layer0_14_MEMBER_1_FILL_1_"/><path class="st5" d="M170.8 171.2l-7.8 4 .1 7.8 7.8-3.9-.1-7.9z" id="ELEMENTSSYMBOL_0_Layer0_14_MEMBER_2_FILL_1_"/><path class="st5" d="M153.6 180.1l7.8-4-7.9-3.9-7.9 4 8 3.9z" id="ELEMENTSSYMBOL_0_Layer0_15_MEMBER_0_FILL_1_"/><path class="st8" d="M145.6 176.1l.1 7.9 7.9 3.9V180l-8-3.9z" id="ELEMENTSSYMBOL_0_Layer0_15_MEMBER_1_FILL_1_"/><path class="st6" d="M161.4 176.1l-7.8 4v7.9l7.9-4-.1-7.9z" id="ELEMENTSSYMBOL_0_Layer0_15_MEMBER_2_FILL_1_"/><path class="st3" d="M189.6 170.2l7.9-4-7.9-3.9-7.9 4 7.9 3.9z" id="ELEMENTSSYMBOL_0_Layer0_16_MEMBER_0_FILL_1_"/><path class="st8" d="M181.8 166.3l.1 7.9 7.9 3.9-.1-7.9-7.9-3.9z" id="ELEMENTSSYMBOL_0_Layer0_16_MEMBER_1_FILL_1_"/><path class="st5" d="M197.6 166.2l-7.9 4 .1 7.9 7.9-4v-7.9z" id="ELEMENTSSYMBOL_0_Layer0_16_MEMBER_2_FILL_1_"/><path class="st3" d="M199.2 167.2l-7.9 3.9 7.9 3.9 7.8-4-7.8-3.8z" id="ELEMENTSSYMBOL_0_Layer0_17_MEMBER_0_FILL_1_"/><path class="st4" d="M191.4 171.1l.1 7.9 7.9 3.9V175l-8-3.9z" id="ELEMENTSSYMBOL_0_Layer0_17_MEMBER_1_FILL_1_"/><path class="st5" d="M199.3 175.1v7.9l7.9-4-.1-7.9-7.8 4z" id="ELEMENTSSYMBOL_0_Layer0_17_MEMBER_2_FILL_1_"/><path class="st3" d="M208.6 179.7l7.9-3.9-7.9-3.9-7.9 4 7.9 3.8z" id="ELEMENTSSYMBOL_0_Layer0_18_MEMBER_0_FILL_1_"/><path class="st4" d="M200.7 175.8l.1 7.9 7.9 3.9-.1-7.9-7.9-3.9z" id="ELEMENTSSYMBOL_0_Layer0_18_MEMBER_1_FILL_1_"/><path class="st5" d="M216.4 175.8l-7.9 3.9.1 7.9 7.9-4-.1-7.8z" id="ELEMENTSSYMBOL_0_Layer0_18_MEMBER_2_FILL_1_"/><path class="st16" d="M208.6 184.6l-27.2-13.4-26.9 13.7 27.1 13.4 27-13.7z" id="ELEMENTSSYMBOL_0_Layer0_19_FILL_1_"/><path class="st5" d="M177.4 176.6c-2 0-3.8.3-5.2 1s-2.2 1.5-2.2 2.5.7 1.8 2.1 2.5c1.5.7 3.2 1.1 5.2 1.2 2.3.1 4.2-.4 5.7-1.2l-5.3-2.6 6.9 1.1c.1-.3.2-.6.2-.8 0-1-.7-1.8-2.2-2.6-1.4-.7-3.2-1.1-5.2-1.1z" id="ELEMENTSSYMBOL_0_Layer0_20_MEMBER_0_FILL_1_"/><path class="st3" d="M198.6 185.4c0-1-.7-1.8-2.1-2.6-1.5-.7-3.2-1.1-5.2-1.1s-3.7.3-5.2 1-2.2 1.5-2.2 2.5.7 1.8 2.2 2.6c1.5.7 3.2 1.1 5.2 1.1s3.8-.3 5.2-1c1.4-.7 2.1-1.5 2.1-2.5z" id="ELEMENTSSYMBOL_0_Layer0_21_FILL_1_"/><path class="st8" d="M179.6 185.3c-2 0-3.7.3-5.2 1s-2.2 1.5-2.2 2.5.7 1.8 2.1 2.5c1.5.8 3.2 1.2 5.2 1.2.8 0 1.6-.1 2.3-.2l-1.9-3.6 4.1 3.1c2-.7 3-1.7 3-2.8 0-1-.7-1.8-2.1-2.6-1.5-.7-3.2-1.1-5.3-1.1z" id="ELEMENTSSYMBOL_0_Layer0_22_MEMBER_0_FILL_1_"/><path class="st17" d="M162.9 172.1v-9.6h-.8v9.6h.8z" id="ELEMENTSSYMBOL_0_Layer0_23_FILL_1_"/><path class="st8" d="M162.6 164.9v-12.3l-2.6-1.3v12.4l2.6 1.2z" id="ELEMENTSSYMBOL_0_Layer0_24_MEMBER_0_FILL_1_"/><path class="st5" d="M165 151.3l-2.4 1.2v12.3l2.4-1.1v-12.4z" id="ELEMENTSSYMBOL_0_Layer0_24_MEMBER_1_FILL_1_"/><path class="st3" d="M165 151.4l-2.6-1.3-2.4 1.2 2.6 1.3 2.4-1.2z" id="ELEMENTSSYMBOL_0_Layer0_24_MEMBER_2_FILL_1_"/><path class="st17" d="M162.9 147.6h-.8v3.9h.8v-3.9z" id="ELEMENTSSYMBOL_0_Layer0_25_FILL_1_"/><path class="st3" d="M153.1 191.1l7.8-4-7.9-3.9-7.9 3.9 8 4z" id="ELEMENTSSYMBOL_0_Layer0_26_MEMBER_0_FILL_1_"/><path class="st4" d="M145.1 187.1l.1 7.9 7.9 3.9-.1-7.9-7.9-3.9z" id="ELEMENTSSYMBOL_0_Layer0_26_MEMBER_1_FILL_1_"/><path class="st7" d="M160.9 187.1l-7.8 4v7.9l7.9-4-.1-7.9z" id="ELEMENTSSYMBOL_0_Layer0_26_MEMBER_2_FILL_1_"/><path class="st3" d="M163.2 196.2l7.9-4-7.9-3.9-7.9 4 7.9 3.9z" id="ELEMENTSSYMBOL_0_Layer0_27_MEMBER_0_FILL_1_"/><path class="st4" d="M155.2 192.3l.1 7.9 7.9 3.9-.1-7.8-7.9-4z" id="ELEMENTSSYMBOL_0_Layer0_27_MEMBER_1_FILL_1_"/><path class="st7" d="M171.1 192.2l-7.9 4v7.8l7.9-4v-7.8z" id="ELEMENTSSYMBOL_0_Layer0_27_MEMBER_2_FILL_1_"/><path class="st6" d="M173.5 201.8l7.8-4-7.9-3.9-7.9 4 8 3.9z" id="ELEMENTSSYMBOL_0_Layer0_28_MEMBER_0_FILL_1_"/><path class="st4" d="M165.6 197.8l.1 7.9 7.9 3.9-.1-7.8-7.9-4z" id="ELEMENTSSYMBOL_0_Layer0_28_MEMBER_1_FILL_1_"/><path class="st5" d="M181.3 197.8l-7.8 4 .1 7.8 7.8-3.9-.1-7.9z" id="ELEMENTSSYMBOL_0_Layer0_28_MEMBER_2_FILL_1_"/><path class="st3" d="M208.8 191.9l7.8-3.9-7.9-3.9-7.9 3.9 8 3.9z" id="ELEMENTSSYMBOL_0_Layer0_29_MEMBER_0_FILL_1_"/><path class="st4" d="M200.8 188l.1 7.9 7.9 3.9-.1-7.9-7.9-3.9z" id="ELEMENTSSYMBOL_0_Layer0_29_MEMBER_1_FILL_1_"/><path class="st5" d="M216.6 187.9l-7.8 3.9.1 7.9 7.8-4-.1-7.8z" id="ELEMENTSSYMBOL_0_Layer0_29_MEMBER_2_FILL_1_"/><path class="st3" d="M199.2 188.5l-7.9 4 7.9 3.9 7.8-4-7.8-3.9z" id="ELEMENTSSYMBOL_0_Layer0_30_MEMBER_0_FILL_1_"/><path class="st4" d="M199.3 196.4l-7.9-3.9.1 7.9 7.9 3.9-.1-7.9z" id="ELEMENTSSYMBOL_0_Layer0_30_MEMBER_1_FILL_1_"/><path class="st5" d="M207.1 192.4l-7.8 4v7.9l7.9-3.9-.1-8z" id="ELEMENTSSYMBOL_0_Layer0_30_MEMBER_2_FILL_1_"/><path class="st3" d="M197.8 197.2l-7.9-3.9-7.9 4 7.9 3.9 7.9-4z" id="ELEMENTSSYMBOL_0_Layer0_31_MEMBER_0_FILL_1_"/><path class="st4" d="M182.1 205.2l7.9 3.9-.1-7.9-7.9-3.9.1 7.9z" id="ELEMENTSSYMBOL_0_Layer0_31_MEMBER_1_FILL_1_"/><path class="st5" d="M190 201.2l.1 7.9 7.8-4-.1-7.9-7.8 4z" id="ELEMENTSSYMBOL_0_Layer0_31_MEMBER_2_FILL_1_"/><path class="st5" d="M189.8 148.2v18.6l.9-.6v-18.6l-.9.6z" id="ELEMENTSSYMBOL_0_Layer0_32_MEMBER_0_MEMBER_0_FILL_1_"/><path class="st8" d="M189.8 166.8v-18.6l-.9-.6v18.6l.9.6z" id="ELEMENTSSYMBOL_0_Layer0_32_MEMBER_0_MEMBER_1_FILL_1_"/><path class="st5" d="M195.8 144.6l-3 1.4v2.9l2.9-1.4.1-2.9z" id="ELEMENTSSYMBOL_0_Layer0_32_MEMBER_0_MEMBER_2_MEMBER_0_FILL_1_"/><path class="st18" d="M192.8 146l-2.9-1.5v2.9l2.9 1.5V146z" id="ELEMENTSSYMBOL_0_Layer0_32_MEMBER_0_MEMBER_2_MEMBER_1_FILL_1_"/><path class="st18" d="M189.8 144.6l-3 1.4v2.9l3-1.4v-2.9z" id="ELEMENTSSYMBOL_0_Layer0_32_MEMBER_0_MEMBER_3_MEMBER_0_FILL_1_"/><path class="st8" d="M186.8 146l-2.9-1.5v2.9l2.9 1.5V146z" id="ELEMENTSSYMBOL_0_Layer0_32_MEMBER_0_MEMBER_3_MEMBER_1_FILL_1_"/><path class="st5" d="M186.7 148.9v2.9l2.9-1.4.1-2.9-3 1.4z" id="ELEMENTSSYMBOL_0_Layer0_32_MEMBER_0_MEMBER_4_MEMBER_0_FILL_1_"/><path class="st8" d="M186.7 151.9V149l-2.9-1.5-.1 2.9 3 1.5z" id="ELEMENTSSYMBOL_0_Layer0_32_MEMBER_0_MEMBER_4_MEMBER_1_FILL_1_"/><path class="st5" d="M192.6 148.9v2.9l2.9-1.4v-2.9l-2.9 1.4z" id="ELEMENTSSYMBOL_0_Layer0_32_MEMBER_0_MEMBER_5_MEMBER_0_FILL_1_"/><path class="st8" d="M192.6 151.9V149l-2.9-1.5v2.9l2.9 1.5z" id="ELEMENTSSYMBOL_0_Layer0_32_MEMBER_0_MEMBER_5_MEMBER_1_FILL_1_"/><path class="st19" d="M189.8 146.8l2.9-1.4-2.9-1.5-2.9 1.4 2.9 1.5z" id="ELEMENTSSYMBOL_0_Layer0_32_MEMBER_0_MEMBER_6_MEMBER_0_FILL_1_"/><path class="st11" d="M192.8 146l3-1.4-2.9-1.5-3 1.4 2.9 1.5z" id="ELEMENTSSYMBOL_0_Layer0_32_MEMBER_0_MEMBER_6_MEMBER_1_FILL_1_"/><path class="st11" d="M186.8 146l3-1.4-3-1.5-2.9 1.4 2.9 1.5z" id="ELEMENTSSYMBOL_0_Layer0_32_MEMBER_0_MEMBER_6_MEMBER_2_FILL_1_"/><path class="st11" d="M189.7 147.5l-2.9-1.5-2.9 1.4 2.9 1.5 2.9-1.4z" id="ELEMENTSSYMBOL_0_Layer0_32_MEMBER_0_MEMBER_6_MEMBER_3_FILL_1_"/><path class="st11" d="M195.6 147.5l-2.9-1.5-2.9 1.4 2.9 1.5 2.9-1.4z" id="ELEMENTSSYMBOL_0_Layer0_32_MEMBER_0_MEMBER_6_MEMBER_4_FILL_1_"/><path class="st14" d="M189.8 146.8l2.9-1.4-2.9-1.5-2.9 1.4 2.9 1.5z" id="ELEMENTSSYMBOL_0_Layer0_32_MEMBER_0_MEMBER_6_MEMBER_5_FILL_1_"/><path class="st5" d="M192.7 145.4l-2.9 1.4v.7l2.9-1.5v-.6z" id="ELEMENTSSYMBOL_0_Layer0_32_MEMBER_0_MEMBER_6_MEMBER_6_FILL_1_"/><path class="st8" d="M189.8 146.8l-2.9-1.5v.7l2.9 1.5v-.7z" id="ELEMENTSSYMBOL_0_Layer0_32_MEMBER_0_MEMBER_6_MEMBER_7_FILL_1_"/><path class="st9" d="M393.8 89.8l-21.1 30.8 20.9-10.6 21.1-30.7-20.9 10.5z" id="ELEMENTSSYMBOL_0_Layer0_33_MEMBER_0_FILL_1_"/><path class="st20" d="M400 101.2l-17 8.7 20.3 8.2 15-7.7-18.3-9.2z" id="ELEMENTSSYMBOL_0_Layer0_33_MEMBER_1_FILL_1_"/><path class="st15" d="M403.3 118v36.7l15.6-8.8v-36.6l-15.6 8.7z" id="ELEMENTSSYMBOL_0_Layer0_33_MEMBER_2_FILL_1_"/><path class="st20" d="M420.4 131.8l15.7-7.8-16.7-13.2-15.8 7.8 16.8 13.2z" id="ELEMENTSSYMBOL_0_Layer0_33_MEMBER_3_FILL_1_"/><path class="st21" d="M422.6 130.6l-16.7-13.2v35.4l16.7 7.9v-30.1z" id="ELEMENTSSYMBOL_0_Layer0_33_MEMBER_4_FILL_1_"/><path class="st22" d="M438.4 122.8l-15.7 7.8h-.1v30.1l.1.1 15.7-7.9v-30.1z" id="ELEMENTSSYMBOL_0_Layer0_33_MEMBER_5_FILL_1_"/><path class="st23" d="M397.7 90.5l-15.1 19.4v34.4l20.7 10.4v-40.9l-5.6-23.3z" id="ELEMENTSSYMBOL_0_Layer0_33_MEMBER_6_FILL_1_"/><path class="st7" d="M413.5 85l-9 1.3-9.2 4.3-2-.6-21.8 29.8v.1c.3 0 .7.3 1.2.8l20.1-26.4 10.2 26.5v.1l20 15.9 20.8-10.1 1.1-2.9v-.1L424 112.8 413.5 85z" id="ELEMENTSSYMBOL_0_Layer0_33_MEMBER_7_FILL_1_"/><path class="st24" d="M393.1 89.8l11.1 29.4h.1l21.4-10.8L414.5 79l-21.4 10.8z" id="ELEMENTSSYMBOL_0_Layer0_33_MEMBER_8_FILL_1_"/><path class="st9" d="M404.4 119.2l19 15.1 21.9-10.6v-.1l-19.6-15.2-21.3 10.8z" id="ELEMENTSSYMBOL_0_Layer0_33_MEMBER_9_FILL_1_"/><path class="st25" d="M409 70.2l6.1-4-4.6-2.2-6.8 3.3v.1l5.3 2.8z" id="ELEMENTSSYMBOL_0_Layer0_33_MEMBER_10_FILL_1_"/><path class="st22" d="M403.8 67.5l-1.5 29.2 6.8 17.9V70.2l-5.3-2.7z" id="ELEMENTSSYMBOL_0_Layer0_33_MEMBER_11_FILL_1_"/><path class="st26" d="M415.1 66.3l-6.8 3.3.6 45v.1l6.8-3.4-.6-45z" id="ELEMENTSSYMBOL_0_Layer0_33_MEMBER_12_FILL_1_"/><path class="st24" d="M407.9 70.8l10-5-6.8-3.3-10 5v.1l6.8 3.2z" id="ELEMENTSSYMBOL_0_Layer0_33_MEMBER_13_MEMBER_0_FILL_1_"/><path class="st8" d="M408.2 69.4l7.2-3.6-4.4-2.2-7.1 3.6 4.3 2.2z" id="ELEMENTSSYMBOL_0_Layer0_33_MEMBER_13_MEMBER_1_FILL_1_"/><path class="st8" d="M408 70.8l-6.8-3.3v2.1l6.8 3.3v-2.1z" id="ELEMENTSSYMBOL_0_Layer0_33_MEMBER_13_MEMBER_2_FILL_1_"/><path class="st9" d="M418 65.8l-10 5v2.1l10-5.1v-2z" id="ELEMENTSSYMBOL_0_Layer0_33_MEMBER_13_MEMBER_3_FILL_1_"/><path class="st17" d="M391.5 134.1c-1.3.8-1.9 2-1.9 3.5v10c0 .2.1.3.2.3l8 4c.1.1.2.1.4 0 .1-.1.1-.2.1-.3l.1-12.8c0-1-.2-2-.8-2.9-.5-.9-1.3-1.5-2.2-2-1.4-.6-2.7-.6-3.9.2z" id="ELEMENTSSYMBOL_0_Layer0_33_MEMBER_14_FILL_1_"/><path class="st17" d="M409.4 139.4l-.1 8.2 9.2 4.6V144l-9.1-4.6z" id="ELEMENTSSYMBOL_0_Layer0_33_MEMBER_15_FILL_1_"/><path class="st17" d="M395.2 116.2c-.1-1.5-.5-2.8-1.4-3.8-.9-1.1-1.9-1.6-3.1-1.6-1.2 0-2.2.5-3 1.6-.8 1-1.2 2.3-1.1 3.8.1 1.5.5 2.7 1.4 3.8s1.9 1.6 3.1 1.6c1.2 0 2.2-.5 3-1.6.8-1.1 1.2-2.3 1.1-3.8z" id="ELEMENTSSYMBOL_0_Layer0_33_MEMBER_16_FILL_1_"/><path class="st5" d="M216.2 166.6l-.8.5v9.2l.8-.3v-9.4z" id="ELEMENTSSYMBOL_0_Layer0_34_MEMBER_0_MEMBER_0_FILL_1_"/><path class="st8" d="M215.4 167.1l-.8-.5v9.2l.8.5v-9.2z" id="ELEMENTSSYMBOL_0_Layer0_34_MEMBER_0_MEMBER_1_FILL_1_"/><path class="st27" d="M223.4 166.4v-1.7l-15.5-.2v1.8c0 .6.4 1.1 1.2 1.6l-1.5.2v1.8c.1.7.6 1.2 1.5 1.6.9.5 2 .7 3.3.6 1.1-.1 2.1-.3 2.8-.6.9.5 2.1.8 3.4.8 1.2 0 2.3-.3 3.1-.7.9-.4 1.3-1 1.4-1.7v-1.8h-1.2c1-.4 1.5-1 1.5-1.7z" id="ELEMENTSSYMBOL_0_Layer0_34_MEMBER_0_MEMBER_2_MEMBER_0_FILL_1_"/><path class="st12" d="M207.6 168.2c.1.7.6 1.2 1.5 1.7.9.4 2 .6 3.3.6 1.1-.1 2.1-.3 2.8-.6.9.5 2.1.8 3.4.8 1.3 0 2.3-.3 3.2-.8.9-.5 1.3-1.1 1.3-1.8-.1-.6-.5-1.1-1.2-1.6 1.1-.5 1.6-1.1 1.5-1.9 0-.6-.5-1.2-1.5-1.6-1-.5-2.1-.7-3.3-.7-1.1.1-2 .3-2.8.6-1-.5-2.1-.7-3.4-.7-1.3 0-2.3.2-3.2.7-.9.5-1.3 1.1-1.3 1.8 0 .6.4 1.1 1.2 1.6-1.1.5-1.6 1.2-1.5 1.9z" id="ELEMENTSSYMBOL_0_Layer0_34_MEMBER_0_MEMBER_2_MEMBER_1_FILL_1_"/><path class="st27" d="M211.4 165.1l.1 1.2c.1.6.5 1 1.3 1.4.8.4 1.7.5 2.8.4 1 0 1.8-.2 2.4-.6.7-.3 1-.8 1.1-1.2l.1-1.2-.7-.1c-.8-.7-2-1-3.5-.9-1.3.1-2.3.4-3 .9h-.6z" id="ELEMENTSSYMBOL_0_Layer0_34_MEMBER_0_MEMBER_3_FILL_1_"/><path class="st28" d="M219.2 164.9c-.1-.5-.5-1-1.3-1.4-.8-.4-1.8-.5-2.8-.5-1.1.1-1.9.3-2.7.7-.7.4-1 .9-.9 1.4.1.6.6 1 1.4 1.3.8.4 1.8.5 2.8.5 1.1 0 2-.3 2.7-.7s.9-.7.8-1.3z" id="ELEMENTSSYMBOL_0_Layer0_34_MEMBER_0_MEMBER_4_FILL_1_"/><path class="st29" d="M113.5 134.1l4.3-21.3-6.8 3.3v19.2l2.5-1.2z" id="ELEMENTSSYMBOL_0_Layer0_35_MEMBER_0_MEMBER_0_MEMBER_0_MEMBER_0_FILL_1_"/><path class="st30" d="M108.6 134.1l2.5 1.2v-19.2l-6.7-3.3 4.2 21.3z" id="ELEMENTSSYMBOL_0_Layer0_35_MEMBER_1_MEMBER_0_MEMBER_0_MEMBER_0_FILL_1_"/><path class="st29" d="M111.1 109.4l-6.7 3.3 6.7 3.3 6.8-3.3-6.8-3.3z" id="ELEMENTSSYMBOL_0_Layer0_35_MEMBER_2_MEMBER_0_MEMBER_0_MEMBER_0_MEMBER_0_MEMBER_0_FILL_1_"/><path class="st31" d="M104.4 112.8l6.7 3.3 6.8-3.3-6.7-3.4-6.8 3.4z" id="ELEMENTSSYMBOL_0_Layer0_35_MEMBER_2_MEMBER_0_MEMBER_0_MEMBER_1_MEMBER_0_FILL_1_"/><path class="st29" d="M110.9 131.6l.4-.7-3.2-1.6-.3.7 3.1 1.6m-4.3-9.3l-.3.7 4.6 2.3.3-.7-4.6-2.3m-1.4-5.1l5.8 2.9.3-.7-5.8-2.9-.3.7z" id="ELEMENTSSYMBOL_0_Layer0_35_MEMBER_3_MEMBER_0_MEMBER_0_FILL_1_"/><path class="st30" d="M111.2 131.6l3.2-1.6-.3-.7-3.2 1.6.3.7m4.7-8.6l-.3-.7-4.6 2.3.3.7 4.6-2.3m-5-3.6l.3.7 5.8-2.8-.3-.7-5.8 2.8z" id="ELEMENTSSYMBOL_0_Layer0_35_MEMBER_3_MEMBER_1_MEMBER_0_FILL_1_"/><path class="st32" d="M111.9 104c0-.2-.1-.4-.2-.5-.2-.2-.3-.2-.6-.2-.2 0-.4.1-.5.2-.2.1-.2.3-.2.5v8.9c0 .2 0 .4.2.6.1.1.3.2.5.2.5 0 .7-.2.8-.8V104z" id="ELEMENTSSYMBOL_0_Layer0_35_MEMBER_4_MEMBER_0_MEMBER_0_FILL_1_"/><path class="st32" d="M115.9 109.3c.2 0 .4 0 .6-.2.1-.1.2-.3.2-.5s-.1-.4-.2-.5c-.2-.2-.3-.3-.5-.2-3-.1-4.9 1.6-5.6 4.9-.1.5.1.8.6.8l.1.1c.4 0 .7-.2.8-.6.5-2.5 1.8-3.8 4-3.8z" id="ELEMENTSSYMBOL_0_Layer0_35_MEMBER_5_MEMBER_0_MEMBER_0_MEMBER_0_FILL_1_"/><path class="st32" d="M106.3 107.8c-.2 0-.4.1-.5.2-.2.1-.2.3-.2.5s.1.4.2.5c.1.1.3.2.5.2 2.2 0 3.6 1.2 4.1 3.8.1.4.3.6.8.6l.2-.1c.5-.1.7-.3.6-.8-.8-3.2-2.6-4.9-5.7-4.9z" id="ELEMENTSSYMBOL_0_Layer0_35_MEMBER_6_MEMBER_0_MEMBER_0_MEMBER_0_FILL_1_"/><path class="st29" d="M152.6 134.3l-6.7 3.4v19.2l2.4-1.2 4.3-21.4z" id="ELEMENTSSYMBOL_0_Layer0_36_MEMBER_0_MEMBER_0_MEMBER_0_MEMBER_0_FILL_1_"/><path class="st30" d="M145.8 137.7l-6.7-3.4 4.2 21.4 2.5 1.2v-19.2z" id="ELEMENTSSYMBOL_0_Layer0_36_MEMBER_1_MEMBER_0_MEMBER_0_MEMBER_0_FILL_1_"/><path class="st31" d="M145.9 131l-6.8 3.3 6.7 3.4 6.7-3.4-6.6-3.3z" id="ELEMENTSSYMBOL_0_Layer0_36_MEMBER_2_MEMBER_0_MEMBER_0_MEMBER_0_MEMBER_0_MEMBER_0_FILL_1_"/><path class="st29" d="M145.6 153.2l.4-.7-3.2-1.6-.4.7 3.2 1.6m.1-11.6l.4-.6-5.8-2.9-.3.7 5.7 2.8m-.1 5.2l.4-.7-4.6-2.3-.3.7 4.5 2.3z" id="ELEMENTSSYMBOL_0_Layer0_36_MEMBER_3_MEMBER_0_MEMBER_0_FILL_1_"/><path class="st30" d="M146 153.2l3.2-1.6-.4-.6-3.2 1.6.4.6m.1-11.6l5.8-2.8-.3-.7-5.8 2.9.3.6m-.1 5.2l4.6-2.3-.3-.7-4.7 2.3.4.7z" id="ELEMENTSSYMBOL_0_Layer0_36_MEMBER_3_MEMBER_1_MEMBER_0_FILL_1_"/><path class="st32" d="M145.9 135.2c.2 0 .4-.1.6-.2.1-.2.2-.4.2-.6v-9c0-.5-.2-.8-.7-.8-.5 0-.8.2-.8.8l-.1 9c0 .2.1.4.2.6.2.2.4.2.6.2z" id="ELEMENTSSYMBOL_0_Layer0_36_MEMBER_4_MEMBER_0_MEMBER_0_FILL_1_"/><path class="st32" d="M145.9 135.2c.4 0 .6-.2.7-.6.5-2.5 1.9-3.8 4.1-3.8h.1c.5 0 .8-.2.8-.7 0-.5-.2-.8-.8-.8-3 0-4.9 1.6-5.6 4.9 0 .2 0 .4.1.6.1.2.3.3.5.3l.1.1z" id="ELEMENTSSYMBOL_0_Layer0_36_MEMBER_5_MEMBER_0_MEMBER_0_MEMBER_0_FILL_1_"/><path class="st32" d="M141.1 130.9c2.2 0 3.6 1.2 4.1 3.8.1.4.4.6.8.6l.2-.1c.2 0 .3-.1.4-.3.1-.2.2-.4.1-.6-.7-3.3-2.5-4.9-5.5-4.9-.2 0-.4.1-.5.2-.2.1-.2.3-.2.5s.1.4.2.6c0 .1.2.2.4.2z" id="ELEMENTSSYMBOL_0_Layer0_36_MEMBER_6_MEMBER_0_MEMBER_0_MEMBER_0_FILL_1_"/><path class="st29" d="M273.8 140.3l-6.7 3.4v19.2l2.4-1.2 4.3-21.4z" id="ELEMENTSSYMBOL_0_Layer0_37_MEMBER_0_MEMBER_0_MEMBER_0_MEMBER_0_FILL_1_"/><path class="st30" d="M267.1 143.7l-6.7-3.4 4.2 21.4 2.5 1.2v-19.2z" id="ELEMENTSSYMBOL_0_Layer0_37_MEMBER_1_MEMBER_0_MEMBER_0_MEMBER_0_FILL_1_"/><path class="st31" d="M267.1 137l-6.8 3.3 6.7 3.4 6.7-3.4-6.6-3.3z" id="ELEMENTSSYMBOL_0_Layer0_37_MEMBER_2_MEMBER_0_MEMBER_0_MEMBER_0_MEMBER_0_MEMBER_0_FILL_1_"/><path class="st29" d="M266.9 152.8l.4-.7-4.6-2.3-.4.6 4.6 2.4m0 6.3l.4-.6-3.2-1.6-.3.7 3.1 1.5m0-11.5l.3-.6-5.8-2.9-.3.7 5.8 2.8z" id="ELEMENTSSYMBOL_0_Layer0_37_MEMBER_3_MEMBER_0_MEMBER_0_FILL_1_"/><path class="st30" d="M267.2 152.8l4.6-2.3-.4-.7-4.6 2.2.4.8m0 6.3l3.2-1.6-.4-.7-3.2 1.6.4.7m0-11.5l5.8-2.9-.3-.7-5.8 2.9.3.7z" id="ELEMENTSSYMBOL_0_Layer0_37_MEMBER_3_MEMBER_1_MEMBER_0_FILL_1_"/><path class="st32" d="M267.1 141.2c.5 0 .8-.2.8-.7v-9c0-.5-.2-.8-.7-.8-.5 0-.8.2-.8.8l-.1 8.9c.1.5.3.8.8.8z" id="ELEMENTSSYMBOL_0_Layer0_37_MEMBER_4_MEMBER_0_MEMBER_0_FILL_1_"/><path class="st32" d="M272 135.4c-3 0-4.9 1.6-5.6 4.9 0 .2 0 .4.1.5.1.2.3.3.5.4h.1c.4 0 .6-.2.7-.6.5-2.5 1.9-3.7 4.1-3.7.2 0 .4-.1.5-.2.1-.2.2-.3.2-.6 0-.2-.1-.4-.2-.5-.1-.1-.3-.2-.4-.2z" id="ELEMENTSSYMBOL_0_Layer0_37_MEMBER_5_MEMBER_0_MEMBER_0_MEMBER_0_FILL_1_"/><path class="st32" d="M262.2 136.8c2.3 0 3.6 1.2 4.1 3.8.1.4.4.6.8.6h.1c.5-.1.7-.4.6-.9-.7-3.3-2.5-4.9-5.5-4.9h-.1c-.5 0-.8.2-.8.8.1.4.4.6.8.6z" id="ELEMENTSSYMBOL_0_Layer0_37_MEMBER_6_MEMBER_0_MEMBER_0_MEMBER_0_FILL_1_"/></g><g><path class="st5" d="M61.44 142.49l7.816-3.98-7.888-3.838-7.817 3.98 7.89 3.837z" id="Symbol_9_0_Layer0_0_MEMBER_0_FILL_1_"/><path class="st7" d="M61.51 150.306v-7.888l-7.888-3.837.07 7.818 7.818 3.908z" id="Symbol_9_0_Layer0_0_MEMBER_1_FILL_1_"/><path class="st33" d="M69.256 138.51l-7.817 3.98v7.887l7.816-3.98v-7.887z" id="Symbol_9_0_Layer0_0_MEMBER_2_FILL_1_"/><g><path class="st5" d="M71.032 147.464l7.817-3.98-7.89-3.837-7.816 3.98 7.888 3.837z" id="Symbol_6_0_Layer0_0_MEMBER_0_FILL_1_"/><path class="st7" d="M63.144 143.555v7.817l7.888 3.838-.07-7.817-7.818-3.838z" id="Symbol_6_0_Layer0_0_MEMBER_1_FILL_1_"/><path class="st6" d="M78.85 143.484l-7.818 3.98.07 7.817 7.818-3.98-.07-7.816z" id="Symbol_6_0_Layer0_0_MEMBER_2_FILL_1_"/></g></g><g><path class="st34" d="M55.353 136.533c0-.942-.29-1.667-.942-2.32-.65-.65-1.448-.94-2.318-.94-.87 0-1.666.29-2.318.94s-.942 1.378-.942 2.32c0 .87.29 1.667.942 2.32.652.65 1.376.94 2.318.94.87 0 1.667-.29 2.32-.94.65-.653.94-1.45.94-2.32z" id="RABBITCTA_0_Layer15_0_FILL_1_"/><g id="RABBITCTA_0_Layer14_0_FILL_1_"><path class="st12" d="M73.034 112.476l-18.478 9.203 10.29 5.288v18.985l18.477-9.203v-18.984l-10.29-5.29z"/><path class="st34" d="M64.846 126.968l-10.29-5.29v18.985l10.29 5.362v-19.057z"/></g><g id="RABBITCTA_0_Layer13_0_FILL_1_"><path class="st34" d="M63.25 113.78l-14.13-7.39-.07 22.68 14.2 7.39v-22.68z"/><path class="st12" d="M89.41 123.49v-22.68l-14.203-7.39-26.086 12.97 14.13 7.39v22.68l26.16-12.97z"/></g><path class="st12" d="M62.18 76.592L59.12 75l-10.042 4.96 3.06 1.592 10.043-4.96z" id="Symbol_5_0_Layer0_0_MEMBER_0_MEMBER_0_FILL_1_"/><path class="st34" d="M52.2 81.552l-3.06-1.592v26.33l3.06 1.59V81.553z" id="Symbol_5_0_Layer0_0_MEMBER_0_MEMBER_1_FILL_1_"/><path class="st12" d="M62.18 76.592l-10.04 5.02v26.39l10.04-5.02v-26.39z" id="Symbol_5_0_Layer0_0_MEMBER_0_MEMBER_2_FILL_1_"/><path class="st35" d="M59.773 79.65l-5.362 2.755v23.187l5.363-2.68V79.65z" id="RABBITCTA_0_Layer11_0_FILL_1_"/><path class="st36" d="M69.967 74.358s-1.47-.735-4.286-2.327l-.672.124c1.898 18.49 2.816 27.737 2.816 27.737h.307c0 .062.613-8.51 1.837-25.532z" id="Symbol_8_0_Layer1_0_FILL_1_"/><path class="st37" d="M74.988 67.072l-9.98 5.02 3.123 1.592 9.98-4.96-3.122-1.652z" id="Symbol_7_0_Layer0_0_MEMBER_0_MEMBER_0_FILL_1_"/><path class="st36" d="M68.07 73.684l-3.123-1.592v26.33l3.122 1.59V73.685z" id="Symbol_7_0_Layer0_0_MEMBER_0_MEMBER_1_FILL_1_"/><path class="st36" d="M68.07 73.684v26.33l9.98-4.96v-26.33l-9.98 4.96z" id="Symbol_7_0_Layer0_0_MEMBER_0_MEMBER_2_FILL_1_"/><path class="st35" d="M75.642 71.753l-5.362 2.68v23.188l5.362-2.68V71.753z" id="RABBITCTA_0_Layer9_0_FILL_1_"/><path class="st38" d="M72.383 123.72c-.06 0-.183 0-.245.06l-15.49 7.96-.184.185c0 .06 0 .122.06.183.062.06.123.123.185.123.06.062.12.062.243 0l15.492-7.96c.06-.06.122-.122.122-.183.06-.06.06-.184 0-.245-.06-.06-.122-.06-.184-.122z" id="w1_0_Layer0_0_FILL_1_"/><path class="st38" d="M72.195 122.9c-.06-.06-.123-.06-.245-.122l-16.532.306c-.06 0-.184.06-.245.122-.06.062-.06.123-.122.245 0 .063.062.185.123.246h.245l16.593-.306c.062 0 .185-.06.246-.122.06-.062.06-.123.06-.245 0 0-.06-.123-.12-.123z" id="w2_0_Layer0_0_FILL_1_"/><path class="st38" d="M94.632 113.394c-.06 0-.122 0-.245.06l-13.103 6.124c-.06.06-.122.06-.184.123 0 .062 0 .184.062.246.06.06.06.122.183.183.123.06.184.06.245 0l13.103-6.124c.062-.06.123-.122.123-.183.06-.123.06-.184 0-.245l-.184-.184z" id="w3_0_Layer0_0_FILL_1_"/><path class="st38" d="M93.466 104.264c-.06 0-.122.06-.184.122l-11.878 14.206c-.06.06-.06.183-.06.245 0 .06.06.122.12.183.062.062.185.123.246.062.06 0 .123-.062.184-.123l11.817-14.206c.062-.06.124-.123.124-.184 0-.06-.062-.122-.123-.245-.06-.06-.183-.06-.244-.06z" id="w4_0_Layer0_0_FILL_1_"/><g><path class="st38" d="M80.57 118.2c-.073.073-.073.145-.073.145.145 3.116-.942 5.073-3.188 6.087-1.088.435-2.03.29-2.9-.362h.073c-.652-.58-1.015-1.232-1.087-1.957 0-.072 0-.145-.073-.145-.072-.072-.144-.072-.217-.072-.072 0-.145.072-.145.145-.07.073-.07.146-.07.146.07.942.506 1.666 1.303 2.39.942.798 2.1.87 3.406.436 2.535-1.015 3.694-3.26 3.55-6.594 0-.073 0-.145-.073-.145-.073-.073-.145-.073-.218-.073-.146-.072-.218 0-.29 0z" id="RABBITCTA_0_Layer4_0_FILL_1_"/></g><g><path class="st38" d="M77.67 120.737c0-.073 0-.145-.07-.218-.074-.073-.074-.073-.146-.073-.073 0-.145 0-.218.072-.072.072-.072.144-.072.217v3.84c0 .072 0 .145.072.145.073.072.145.072.218.072.072 0 .145 0 .145-.072.07-.073.07-.073.07-.145v-3.84z" id="RABBITCTA_0_Layer3_0_FILL_1_"/></g><g><path class="st39" d="M80.405 116.707l-.796-.368-6.124 3.06 3.98 2.328 2.94-5.02z" id="nose_0_Layer0_0_FILL_1_"/><path class="st40" d="M80.405 116.707l-6.184 3.122 3.184 1.898 3-5.02z" id="nose_0_Layer0_1_FILL_1_"/></g><g><path class="st41" d="M71.295 115.592c-.58-.29-1.16-.29-1.812.072-.58.363-1.087 1.015-1.45 1.884-.29.797-.362 1.667-.217 2.464.145.797.508 1.304 1.16 1.667.58.288 1.16.288 1.81-.146.653-.363 1.088-.942 1.45-1.812.363-.797.435-1.667.218-2.464-.145-.797-.58-1.376-1.16-1.666z" id="RABBITCTA_0_Layer1_0_FILL_1_"/></g><g><path class="st41" d="M80.497 111.534c-.362.87-.435 1.667-.29 2.464.218.797.58 1.376 1.16 1.666.58.29 1.16.29 1.74-.072.65-.363 1.086-1.015 1.448-1.812.29-.87.435-1.666.29-2.536-.145-.797-.58-1.304-1.16-1.594-.58-.29-1.16-.29-1.81.145-.653.29-1.088.87-1.378 1.74z" id="RABBITCTA_0_Layer0_0_FILL_1_"/></g></g></svg>